<svg width="142" height="115" viewBox="0 0 142 115" fill="none" xmlns="http://www.w3.org/2000/svg">
<g id="calendar/rafiki">
<path id="Vector" d="M71 114.685C109.924 114.685 141.479 112.843 141.479 110.571C141.479 108.298 109.924 106.456 71 106.456C32.0758 106.456 0.521423 108.298 0.521423 110.571C0.521423 112.843 32.0758 114.685 71 114.685Z" fill="#F5F5F5"/>
<g id="Calendar">
<path id="Vector_2" d="M45.7189 58.3002C45.5034 58.2861 45.3013 58.1905 45.1537 58.0329C45.006 57.8753 44.9239 57.6674 44.9239 57.4514C44.9239 57.2355 45.006 57.0276 45.1537 56.87C45.3013 56.7123 45.5034 56.6168 45.7189 56.6027C47.7981 56.6027 49.5502 53.6256 49.5502 50.0997C49.5643 49.8842 49.6598 49.6821 49.8175 49.5345C49.9751 49.3868 50.183 49.3047 50.3989 49.3047C50.6149 49.3047 50.8228 49.3868 50.9804 49.5345C51.138 49.6821 51.2336 49.8842 51.2477 50.0997C51.2477 54.6979 48.8268 58.3002 45.7189 58.3002Z" fill="#FCAF17"/>
<path id="Vector_3" d="M58.5465 58.3002C58.331 58.2861 58.129 58.1905 57.9813 58.0329C57.8337 57.8753 57.7515 57.6674 57.7515 57.4514C57.7515 57.2355 57.8337 57.0276 57.9813 56.87C58.129 56.7123 58.331 56.6168 58.5465 56.6027C60.6257 56.6027 62.3778 53.6256 62.3778 50.0997C62.3919 49.8842 62.4875 49.6821 62.6451 49.5345C62.8027 49.3868 63.0106 49.3047 63.2266 49.3047C63.4425 49.3047 63.6504 49.3868 63.808 49.5345C63.9657 49.6821 64.0612 49.8842 64.0753 50.0997C64.0935 54.6979 61.6472 58.3002 58.5465 58.3002Z" fill="#FCAF17"/>
<path id="Vector_4" d="M71.3637 58.2995C71.1482 58.2854 70.9461 58.1899 70.7984 58.0322C70.6508 57.8746 70.5686 57.6667 70.5686 57.4508C70.5686 57.2348 70.6508 57.0269 70.7984 56.8693C70.9461 56.7117 71.1482 56.6161 71.3637 56.602C73.4392 56.602 75.1949 53.625 75.1949 50.099C75.1949 49.8744 75.2842 49.659 75.443 49.5001C75.6018 49.3413 75.8173 49.2521 76.0419 49.2521C76.2665 49.2521 76.4819 49.3413 76.6408 49.5001C76.7996 49.659 76.8888 49.8744 76.8888 50.099C76.8997 54.6973 74.4752 58.2995 71.3637 58.2995Z" fill="#FCAF17"/>
<path id="Vector_5" d="M84.2025 58.2995C84.0864 58.3071 83.9699 58.2908 83.8603 58.2516C83.7508 58.2124 83.6504 58.1511 83.5654 58.0716C83.4805 57.992 83.4128 57.8959 83.3665 57.7891C83.3202 57.6823 83.2963 57.5672 83.2963 57.4508C83.2963 57.3344 83.3202 57.2192 83.3665 57.1125C83.4128 57.0057 83.4805 56.9095 83.5654 56.83C83.6504 56.7504 83.7508 56.6891 83.8603 56.6499C83.9699 56.6107 84.0864 56.5944 84.2025 56.602C86.2781 56.602 88.0338 53.625 88.0338 50.099C88.0338 49.8744 88.123 49.659 88.2818 49.5001C88.4407 49.3413 88.6561 49.2521 88.8807 49.2521C89.1053 49.2521 89.3208 49.3413 89.4796 49.5001C89.6384 49.659 89.7277 49.8744 89.7277 50.099C89.7277 54.6973 87.2995 58.2995 84.2025 58.2995Z" fill="#FCAF17"/>
<path id="Vector_6" d="M97.0264 58.3002C96.8109 58.2861 96.6088 58.1905 96.4612 58.0329C96.3135 57.8753 96.2314 57.6674 96.2314 57.4514C96.2314 57.2355 96.3135 57.0276 96.4612 56.87C96.6088 56.7123 96.8109 56.6168 97.0264 56.6027C99.1056 56.6027 100.858 53.6256 100.858 50.0997C100.872 49.8842 100.967 49.6821 101.125 49.5345C101.283 49.3868 101.49 49.3047 101.706 49.3047C101.922 49.3047 102.13 49.3868 102.288 49.5345C102.446 49.6821 102.541 49.8842 102.555 50.0997C102.555 54.6979 100.127 58.3002 97.0264 58.3002Z" fill="#FCAF17"/>
<path id="Vector_7" d="M109.854 58.3002C109.639 58.2861 109.437 58.1905 109.289 58.0329C109.142 57.8753 109.059 57.6674 109.059 57.4514C109.059 57.2355 109.142 57.0276 109.289 56.87C109.437 56.7123 109.639 56.6168 109.854 56.6027C111.93 56.6027 113.686 53.6256 113.686 50.0997C113.7 49.8842 113.795 49.6821 113.953 49.5345C114.111 49.3868 114.319 49.3047 114.534 49.3047C114.75 49.3047 114.958 49.3868 115.116 49.5345C115.274 49.6821 115.369 49.8842 115.383 50.0997C115.383 54.6979 112.955 58.3002 109.854 58.3002Z" fill="#FCAF17"/>
<g id="Group" opacity="0.3">
<path id="Vector_8" d="M45.7189 58.2997C45.5034 58.2856 45.3013 58.19 45.1537 58.0324C45.006 57.8748 44.9239 57.6669 44.9239 57.451C44.9239 57.235 45.006 57.0271 45.1537 56.8695C45.3013 56.7119 45.5034 56.6163 45.7189 56.6022C47.7981 56.6022 49.5501 53.6251 49.5501 50.0992C49.5642 49.8837 49.6598 49.6816 49.8174 49.534C49.9751 49.3864 50.1829 49.3042 50.3989 49.3042C50.6149 49.3042 50.8228 49.3864 50.9804 49.534C51.138 49.6816 51.2336 49.8837 51.2477 50.0992C51.2477 54.6975 48.8268 58.2997 45.7189 58.2997Z" fill="black"/>
<path id="Vector_9" d="M58.5465 58.2997C58.331 58.2856 58.1289 58.19 57.9813 58.0324C57.8336 57.8748 57.7515 57.6669 57.7515 57.451C57.7515 57.235 57.8336 57.0271 57.9813 56.8695C58.1289 56.7119 58.331 56.6163 58.5465 56.6022C60.6257 56.6022 62.3778 53.6251 62.3778 50.0992C62.3919 49.8837 62.4874 49.6816 62.6451 49.534C62.8027 49.3864 63.0106 49.3042 63.2265 49.3042C63.4425 49.3042 63.6504 49.3864 63.808 49.534C63.9656 49.6816 64.0612 49.8837 64.0753 50.0992C64.0935 54.6975 61.6471 58.2997 58.5465 58.2997Z" fill="black"/>
<path id="Vector_10" d="M71.3636 58.2999C71.1481 58.2858 70.946 58.1902 70.7984 58.0326C70.6508 57.875 70.5686 57.6671 70.5686 57.4511C70.5686 57.2352 70.6508 57.0273 70.7984 56.8697C70.946 56.712 71.1481 56.6165 71.3636 56.6024C73.4392 56.6024 75.1949 53.6253 75.1949 50.0994C75.1949 49.8748 75.2841 49.6593 75.443 49.5005C75.6018 49.3417 75.8172 49.2524 76.0418 49.2524C76.2665 49.2524 76.4819 49.3417 76.6407 49.5005C76.7996 49.6593 76.8888 49.8748 76.8888 50.0994C76.8997 54.6976 74.4752 58.2999 71.3636 58.2999Z" fill="black"/>
<path id="Vector_11" d="M84.2025 58.2999C84.0863 58.3075 83.9699 58.2912 83.8603 58.252C83.7507 58.2128 83.6503 58.1515 83.5654 58.0719C83.4805 57.9924 83.4128 57.8962 83.3665 57.7894C83.3202 57.6827 83.2963 57.5675 83.2963 57.4511C83.2963 57.3348 83.3202 57.2196 83.3665 57.1128C83.4128 57.0061 83.4805 56.9099 83.5654 56.8303C83.6503 56.7508 83.7507 56.6895 83.8603 56.6503C83.9699 56.6111 84.0863 56.5948 84.2025 56.6024C86.278 56.6024 88.0337 53.6253 88.0337 50.0994C88.0337 49.8748 88.123 49.6593 88.2818 49.5005C88.4406 49.3417 88.656 49.2524 88.8807 49.2524C89.1053 49.2524 89.3207 49.3417 89.4795 49.5005C89.6384 49.6593 89.7276 49.8748 89.7276 50.0994C89.7276 54.6976 87.2995 58.2999 84.2025 58.2999Z" fill="black"/>
<path id="Vector_12" d="M97.0263 58.2997C96.8108 58.2856 96.6088 58.19 96.4611 58.0324C96.3135 57.8748 96.2313 57.6669 96.2313 57.451C96.2313 57.235 96.3135 57.0271 96.4611 56.8695C96.6088 56.7119 96.8108 56.6163 97.0263 56.6022C99.1056 56.6022 100.858 53.6251 100.858 50.0992C100.872 49.8837 100.967 49.6816 101.125 49.534C101.283 49.3864 101.49 49.3042 101.706 49.3042C101.922 49.3042 102.13 49.3864 102.288 49.534C102.445 49.6816 102.541 49.8837 102.555 50.0992C102.555 54.6975 100.127 58.2997 97.0263 58.2997Z" fill="black"/>
<path id="Vector_13" d="M109.854 58.2997C109.639 58.2856 109.437 58.19 109.289 58.0324C109.142 57.8748 109.059 57.6669 109.059 57.451C109.059 57.235 109.142 57.0271 109.289 56.8695C109.437 56.7119 109.639 56.6163 109.854 56.6022C111.93 56.6022 113.686 53.6251 113.686 50.0992C113.7 49.8837 113.795 49.6816 113.953 49.534C114.111 49.3864 114.319 49.3042 114.534 49.3042C114.75 49.3042 114.958 49.3864 115.116 49.534C115.274 49.6816 115.369 49.8837 115.383 50.0992C115.383 54.6975 112.955 58.2997 109.854 58.2997Z" fill="black"/>
</g>
<path id="Vector_14" d="M37.682 50.9684H120.261C121.369 50.9905 122.43 51.416 123.246 52.1649C124.061 52.9138 124.576 53.9346 124.692 55.0359L129.265 106.591C129.321 107.108 129.266 107.631 129.104 108.126C128.943 108.62 128.678 109.075 128.327 109.459C127.977 109.844 127.549 110.15 127.071 110.356C126.594 110.563 126.078 110.666 125.558 110.658H42.9745C41.8678 110.635 40.8076 110.209 39.9921 109.46C39.1766 108.711 38.6616 107.691 38.5435 106.591L33.9743 55.0359C33.9181 54.5185 33.9725 53.995 34.134 53.5002C34.2954 53.0054 34.5603 52.5506 34.9109 52.166C35.2615 51.7814 35.6899 51.4757 36.1676 51.2692C36.6454 51.0627 37.1616 50.9602 37.682 50.9684Z" fill="#FCAF17"/>
<path id="Vector_15" opacity="0.4" d="M37.682 50.9684H120.261C121.369 50.9905 122.43 51.416 123.246 52.1649C124.061 52.9138 124.576 53.9346 124.692 55.0359L129.265 106.591C129.321 107.108 129.266 107.631 129.104 108.126C128.943 108.62 128.678 109.075 128.327 109.459C127.977 109.844 127.549 110.15 127.071 110.356C126.594 110.563 126.078 110.666 125.558 110.658H42.9745C41.8678 110.635 40.8076 110.209 39.9921 109.46C39.1766 108.711 38.6616 107.691 38.5435 106.591L33.9743 55.0359C33.9181 54.5185 33.9725 53.995 34.134 53.5002C34.2954 53.0054 34.5603 52.5506 34.9109 52.166C35.2615 51.7814 35.6899 51.4757 36.1676 51.2692C36.6454 51.0627 37.1616 50.9602 37.682 50.9684Z" fill="#FAFAFA"/>
<path id="Vector_16" d="M119.574 50.968H36.9914C35.8991 50.981 34.8524 51.4082 34.0629 52.1632C33.2735 52.9182 32.8001 53.9448 32.7385 55.0355L30.4121 106.59C30.3844 107.116 30.4642 107.641 30.6466 108.134C30.829 108.628 31.1102 109.078 31.473 109.459C31.8358 109.84 32.2725 110.143 32.7563 110.349C33.2402 110.555 33.761 110.66 34.287 110.658H116.877C117.97 110.645 119.016 110.218 119.806 109.463C120.595 108.708 121.069 107.681 121.13 106.59L123.46 55.0355C123.487 54.5095 123.407 53.9835 123.224 53.4897C123.04 52.9959 122.758 52.5447 122.394 52.1639C122.031 51.783 121.593 51.4805 121.108 51.2749C120.623 51.0692 120.101 50.9648 119.574 50.968Z" fill="#FCAF17"/>
<path id="Vector_17" opacity="0.2" d="M119.574 50.968H36.9914C35.8991 50.981 34.8524 51.4082 34.0629 52.1632C33.2735 52.9182 32.8001 53.9448 32.7385 55.0355L30.4121 106.59C30.3844 107.116 30.4642 107.641 30.6466 108.134C30.829 108.628 31.1102 109.078 31.473 109.459C31.8358 109.84 32.2725 110.143 32.7563 110.349C33.2402 110.555 33.761 110.66 34.287 110.658H116.877C117.97 110.645 119.016 110.218 119.806 109.463C120.595 108.708 121.069 107.681 121.13 106.59L123.46 55.0355C123.487 54.5095 123.407 53.9835 123.224 53.4897C123.04 52.9959 122.758 52.5447 122.394 52.1639C122.031 51.783 121.593 51.4805 121.108 51.2749C120.623 51.0692 120.101 50.9648 119.574 50.968Z" fill="#FAFAFA"/>
<path id="Vector_18" d="M38.507 97.0344L40.4299 54.4579C40.453 54.0402 40.6341 53.647 40.9366 53.3581C41.239 53.0691 41.6401 52.9061 42.0584 52.9021H114.333C114.534 52.9009 114.734 52.9408 114.919 53.0194C115.105 53.0981 115.272 53.2138 115.411 53.3594C115.551 53.5051 115.659 53.6777 115.729 53.8666C115.799 54.0554 115.83 54.2567 115.819 54.4579L113.893 97.0344C113.87 97.452 113.689 97.8453 113.386 98.1342C113.084 98.4232 112.683 98.5862 112.264 98.5902H39.9937C39.7922 98.5914 39.5926 98.5515 39.4071 98.4729C39.2216 98.3942 39.0541 98.2785 38.9149 98.1329C38.7757 97.9872 38.6677 97.8146 38.5976 97.6257C38.5274 97.4368 38.4966 97.2356 38.507 97.0344Z" fill="#FCAF17"/>
<path id="Vector_19" opacity="0.1" d="M38.507 97.0344L40.4299 54.4579C40.453 54.0402 40.6341 53.647 40.9366 53.3581C41.239 53.0691 41.6401 52.9061 42.0584 52.9021H114.333C114.534 52.9009 114.734 52.9408 114.919 53.0194C115.105 53.0981 115.272 53.2138 115.411 53.3594C115.551 53.5051 115.659 53.6777 115.729 53.8666C115.799 54.0554 115.83 54.2567 115.819 54.4579L113.893 97.0344C113.87 97.452 113.689 97.8453 113.386 98.1342C113.084 98.4232 112.683 98.5862 112.264 98.5902H39.9937C39.7922 98.5914 39.5926 98.5515 39.4071 98.4729C39.2216 98.3942 39.0541 98.2785 38.9149 98.1329C38.7757 97.9872 38.6677 97.8146 38.5976 97.6257C38.5274 97.4368 38.4966 97.2356 38.507 97.0344Z" fill="#FAFAFA"/>
<path id="Vector_20" opacity="0.1" d="M36.4679 100.509L38.4853 55.7985C38.5085 55.36 38.6982 54.9469 39.0157 54.6435C39.3332 54.3402 39.7546 54.1695 40.1937 54.1664H116.092C116.304 54.1646 116.513 54.2062 116.708 54.2885C116.903 54.3708 117.079 54.4922 117.225 54.6451C117.371 54.7981 117.484 54.9793 117.558 55.1777C117.631 55.376 117.663 55.5873 117.651 55.7985L115.63 100.509C115.607 100.947 115.418 101.36 115.102 101.664C114.785 101.968 114.364 102.14 113.926 102.145H38.02C37.8087 102.146 37.5993 102.104 37.4048 102.021C37.2103 101.938 37.0349 101.816 36.8894 101.663C36.7439 101.51 36.6315 101.328 36.559 101.13C36.4865 100.931 36.4555 100.72 36.4679 100.509Z" fill="black"/>
<path id="Vector_21" d="M34.5924 104.115L36.697 57.4784C36.7253 57.0224 36.9242 56.5938 37.2543 56.2778C37.5844 55.9619 38.0213 55.7819 38.4782 55.7736H117.652C117.872 55.7718 118.091 55.8153 118.295 55.9013C118.498 55.9873 118.682 56.1141 118.835 56.2738C118.987 56.4336 119.105 56.6228 119.182 56.83C119.259 57.0372 119.292 57.2579 119.28 57.4784L117.165 104.115C117.136 104.571 116.937 105 116.607 105.316C116.277 105.632 115.84 105.812 115.383 105.82H36.2208C35.9998 105.822 35.7806 105.779 35.5769 105.693C35.3733 105.608 35.1894 105.481 35.0367 105.321C34.884 105.161 34.7658 104.972 34.6893 104.764C34.6129 104.557 34.5799 104.336 34.5924 104.115Z" fill="#FAFAFA"/>
<path id="Vector_22" d="M109.843 58.5688C109.694 58.5691 109.547 58.5389 109.41 58.48C109.274 58.4212 109.15 58.3349 109.048 58.2266C108.946 58.1183 108.867 57.9903 108.816 57.8503C108.765 57.7104 108.744 57.5615 108.753 57.4129C108.767 57.1213 108.891 56.8459 109.102 56.6432C109.312 56.4405 109.591 56.3258 109.883 56.3224C110.032 56.3221 110.18 56.3523 110.316 56.4112C110.453 56.47 110.576 56.5563 110.678 56.6646C110.781 56.7729 110.86 56.9009 110.91 57.0409C110.961 57.1808 110.983 57.3297 110.974 57.4783C110.96 57.7699 110.835 58.0453 110.625 58.248C110.415 58.4507 110.135 58.5654 109.843 58.5688Z" fill="#FCAF17"/>
<path id="Vector_23" d="M97.0156 58.5688C96.8668 58.5691 96.7194 58.5389 96.5826 58.48C96.4459 58.4212 96.3226 58.3349 96.2205 58.2266C96.1183 58.1183 96.0394 57.9903 95.9886 57.8503C95.9378 57.7104 95.9162 57.5615 95.9252 57.4129C95.939 57.1213 96.0638 56.8459 96.2739 56.6432C96.4841 56.4405 96.7637 56.3258 97.0556 56.3224C97.2045 56.3221 97.3519 56.3523 97.4886 56.4112C97.6254 56.47 97.7486 56.5563 97.8508 56.6646C97.953 56.7729 98.0319 56.9009 98.0827 57.0409C98.1335 57.1808 98.1551 57.3297 98.1461 57.4783C98.1331 57.7702 98.0086 58.0461 97.7983 58.2489C97.588 58.4518 97.3079 58.5663 97.0156 58.5688Z" fill="#FCAF17"/>
<path id="Vector_24" d="M84.1876 58.5688C84.0387 58.5691 83.8913 58.5389 83.7546 58.48C83.6178 58.4212 83.4945 58.3349 83.3924 58.2266C83.2902 58.1183 83.2113 57.9903 83.1605 57.8503C83.1097 57.7104 83.0881 57.5615 83.0971 57.4129C83.1118 57.1215 83.2368 56.8467 83.4468 56.6442C83.6567 56.4417 83.9359 56.3266 84.2276 56.3224C84.3764 56.3221 84.5238 56.3523 84.6606 56.4112C84.7973 56.47 84.9206 56.5563 85.0227 56.6646C85.1249 56.7729 85.2038 56.9009 85.2546 57.0409C85.3054 57.1808 85.327 57.3297 85.318 57.4783C85.305 57.7702 85.1805 58.0461 84.9702 58.2489C84.7599 58.4518 84.4798 58.5663 84.1876 58.5688Z" fill="#FCAF17"/>
<path id="Vector_25" d="M71.3634 58.5688C71.2146 58.5691 71.0672 58.5389 70.9304 58.48C70.7937 58.4212 70.6704 58.3349 70.5683 58.2266C70.4661 58.1183 70.3872 57.9903 70.3364 57.8503C70.2856 57.7104 70.264 57.5615 70.2729 57.4129C70.2886 57.1212 70.4144 56.8464 70.6249 56.644C70.8355 56.4415 71.115 56.3266 71.4071 56.3224C71.5559 56.3221 71.7033 56.3523 71.8401 56.4112C71.9768 56.47 72.1001 56.5563 72.2022 56.6646C72.3044 56.7729 72.3833 56.9009 72.4341 57.0409C72.4849 57.1808 72.5065 57.3297 72.4976 57.4783C72.4845 57.7709 72.3595 58.0472 72.1484 58.2502C71.9373 58.4532 71.6563 58.5672 71.3634 58.5688Z" fill="#FCAF17"/>
<path id="Vector_26" d="M58.5358 58.5688C58.3869 58.5691 58.2396 58.5389 58.1028 58.48C57.966 58.4212 57.8428 58.3349 57.7406 58.2266C57.6385 58.1183 57.5595 57.9903 57.5088 57.8503C57.458 57.7104 57.4364 57.5615 57.4453 57.4129C57.4592 57.1213 57.584 56.8459 57.7941 56.6432C58.0042 56.4405 58.2838 56.3258 58.5758 56.3224C58.7247 56.3221 58.872 56.3523 59.0088 56.4112C59.1455 56.47 59.2688 56.5563 59.371 56.6646C59.4731 56.7729 59.552 56.9009 59.6028 57.0409C59.6536 57.1808 59.6752 57.3297 59.6663 57.4783C59.6524 57.7699 59.5276 58.0453 59.3175 58.248C59.1074 58.4507 58.8277 58.5654 58.5358 58.5688Z" fill="#FCAF17"/>
<path id="Vector_27" d="M45.7077 58.5688C45.5588 58.5691 45.4115 58.5389 45.2747 58.48C45.138 58.4212 45.0147 58.3349 44.9125 58.2266C44.8104 58.1183 44.7315 57.9903 44.6807 57.8503C44.6299 57.7104 44.6083 57.5615 44.6172 57.4129C44.6311 57.1213 44.7559 56.8459 44.966 56.6432C45.1761 56.4405 45.4558 56.3258 45.7477 56.3224C45.8966 56.3221 46.044 56.3523 46.1807 56.4112C46.3175 56.47 46.4407 56.5563 46.5429 56.6646C46.6451 56.7729 46.724 56.9009 46.7748 57.0409C46.8255 57.1808 46.8471 57.3297 46.8382 57.4783C46.8252 57.7702 46.7007 58.0461 46.4904 58.2489C46.2801 58.4518 45.9999 58.5663 45.7077 58.5688Z" fill="#FCAF17"/>
<g id="Group_2" opacity="0.1">
<path id="Vector_28" d="M109.844 58.5684C109.695 58.5687 109.547 58.5385 109.411 58.4796C109.274 58.4208 109.151 58.3346 109.048 58.2263C108.946 58.118 108.867 57.9899 108.817 57.8499C108.766 57.71 108.744 57.5611 108.753 57.4125C108.767 57.1209 108.892 56.8456 109.102 56.6429C109.312 56.4402 109.592 56.3254 109.884 56.322C110.032 56.3218 110.18 56.352 110.317 56.4108C110.453 56.4697 110.577 56.5559 110.679 56.6642C110.781 56.7725 110.86 56.9006 110.911 57.0405C110.961 57.1805 110.983 57.3293 110.974 57.4779C110.96 57.7696 110.835 58.0449 110.625 58.2476C110.415 58.4503 110.136 58.5651 109.844 58.5684Z" fill="#FAFAFA"/>
<path id="Vector_29" d="M97.0155 58.5684C96.8667 58.5687 96.7193 58.5385 96.5825 58.4796C96.4458 58.4208 96.3225 58.3346 96.2204 58.2263C96.1182 58.118 96.0393 57.9899 95.9885 57.8499C95.9377 57.71 95.9161 57.5611 95.925 57.4125C95.9389 57.1209 96.0637 56.8456 96.2738 56.6429C96.484 56.4402 96.7636 56.3254 97.0555 56.322C97.2044 56.3218 97.3518 56.352 97.4885 56.4108C97.6253 56.4697 97.7485 56.5559 97.8507 56.6642C97.9529 56.7725 98.0318 56.9006 98.0826 57.0405C98.1334 57.1805 98.1549 57.3293 98.146 57.4779C98.133 57.7699 98.0085 58.0457 97.7982 58.2486C97.5879 58.4515 97.3077 58.5659 97.0155 58.5684Z" fill="#FAFAFA"/>
<path id="Vector_30" d="M84.1879 58.5684C84.039 58.5687 83.8917 58.5385 83.7549 58.4796C83.6181 58.4208 83.4949 58.3346 83.3927 58.2263C83.2905 58.118 83.2116 57.9899 83.1609 57.8499C83.1101 57.71 83.0885 57.5611 83.0974 57.4125C83.1121 57.1212 83.2372 56.8464 83.4471 56.6438C83.6571 56.4413 83.9362 56.3263 84.2279 56.322C84.3768 56.3218 84.5241 56.352 84.6609 56.4108C84.7976 56.4697 84.9209 56.5559 85.0231 56.6642C85.1252 56.7725 85.2041 56.9006 85.2549 57.0405C85.3057 57.1805 85.3273 57.3293 85.3184 57.4779C85.3054 57.7699 85.1809 58.0457 84.9705 58.2486C84.7602 58.4515 84.4801 58.5659 84.1879 58.5684Z" fill="#FAFAFA"/>
<path id="Vector_31" d="M71.3638 58.5684C71.2149 58.5687 71.0675 58.5385 70.9308 58.4796C70.794 58.4208 70.6707 58.3346 70.5686 58.2263C70.4664 58.118 70.3875 57.9899 70.3367 57.8499C70.2859 57.71 70.2643 57.5611 70.2733 57.4125C70.2889 57.1209 70.4147 56.846 70.6253 56.6436C70.8358 56.4412 71.1153 56.3262 71.4074 56.322C71.5563 56.3218 71.7036 56.352 71.8404 56.4108C71.9771 56.4697 72.1004 56.5559 72.2026 56.6642C72.3047 56.7725 72.3836 56.9006 72.4344 57.0405C72.4852 57.1805 72.5068 57.3293 72.4979 57.4779C72.4848 57.7705 72.3598 58.0468 72.1487 58.2498C71.9376 58.4528 71.6566 58.5669 71.3638 58.5684Z" fill="#FAFAFA"/>
<path id="Vector_32" d="M58.5357 58.5684C58.3868 58.5687 58.2394 58.5385 58.1027 58.4796C57.9659 58.4208 57.8427 58.3346 57.7405 58.2263C57.6383 58.118 57.5594 57.9899 57.5086 57.8499C57.4579 57.71 57.4363 57.5611 57.4452 57.4125C57.4591 57.1209 57.5838 56.8456 57.794 56.6429C58.0041 56.4402 58.2837 56.3254 58.5757 56.322C58.7246 56.3218 58.8719 56.352 59.0087 56.4108C59.1454 56.4697 59.2687 56.5559 59.3709 56.6642C59.473 56.7725 59.5519 56.9006 59.6027 57.0405C59.6535 57.1805 59.6751 57.3293 59.6662 57.4779C59.6523 57.7696 59.5275 58.0449 59.3174 58.2476C59.1073 58.4503 58.8276 58.5651 58.5357 58.5684Z" fill="#FAFAFA"/>
<path id="Vector_33" d="M45.7081 58.5684C45.5592 58.5687 45.4118 58.5385 45.275 58.4796C45.1383 58.4208 45.015 58.3346 44.9129 58.2263C44.8107 58.118 44.7318 57.9899 44.681 57.8499C44.6302 57.71 44.6086 57.5611 44.6176 57.4125C44.6314 57.1209 44.7562 56.8456 44.9663 56.6429C45.1765 56.4402 45.4561 56.3254 45.748 56.322C45.8969 56.3218 46.0443 56.352 46.181 56.4108C46.3178 56.4697 46.4411 56.5559 46.5432 56.6642C46.6454 56.7725 46.7243 56.9006 46.7751 57.0405C46.8259 57.1805 46.8475 57.3293 46.8385 57.4779C46.8255 57.7699 46.701 58.0457 46.4907 58.2486C46.2804 58.4515 46.0003 58.5659 45.7081 58.5684Z" fill="#FAFAFA"/>
</g>
<path id="Vector_34" d="M48.914 62.632H42.4619C42.3683 62.6328 42.2757 62.6141 42.1897 62.5772C42.1037 62.5403 42.0264 62.486 41.9625 62.4177C41.8986 62.3493 41.8496 62.2685 41.8185 62.1802C41.7875 62.092 41.7751 61.9983 41.7821 61.905C41.7893 61.7145 41.8682 61.5337 42.0031 61.3989C42.1379 61.2641 42.3186 61.1852 42.5091 61.178H48.9612C49.0548 61.1772 49.1474 61.1959 49.2334 61.2328C49.3194 61.2697 49.3967 61.324 49.4606 61.3923C49.5245 61.4607 49.5735 61.5415 49.6046 61.6298C49.6356 61.718 49.648 61.8117 49.641 61.905C49.6338 62.0955 49.5549 62.2763 49.4201 62.4111C49.2852 62.5459 49.1045 62.6248 48.914 62.632Z" fill="#FCAF17"/>
<path id="Vector_35" d="M61.7416 62.632H55.2895C55.196 62.6328 55.1033 62.6141 55.0173 62.5772C54.9314 62.5403 54.854 62.486 54.7901 62.4177C54.7262 62.3493 54.6772 62.2685 54.6462 62.1802C54.6151 62.092 54.6027 61.9983 54.6098 61.905C54.6172 61.7114 54.6987 61.5281 54.8373 61.3928C54.976 61.2576 55.1613 61.1807 55.3549 61.178H61.8034C61.8971 61.1773 61.9899 61.1959 62.0761 61.2328C62.1622 61.2696 62.2398 61.3239 62.304 61.3922C62.3681 61.4604 62.4175 61.5412 62.449 61.6295C62.4804 61.7177 62.4933 61.8115 62.4868 61.905C62.4793 62.0986 62.3979 62.2819 62.2592 62.4172C62.1206 62.5524 61.9353 62.6293 61.7416 62.632Z" fill="#FCAF17"/>
<path id="Vector_36" d="M74.57 62.632H68.1179C68.0242 62.6327 67.9314 62.6141 67.8452 62.5772C67.7591 62.5404 67.6815 62.4861 67.6173 62.4178C67.5532 62.3496 67.5038 62.2688 67.4723 62.1805C67.4409 62.0923 67.428 61.9985 67.4345 61.905C67.4419 61.7114 67.5234 61.5281 67.662 61.3928C67.8007 61.2576 67.986 61.1807 68.1797 61.178H74.6354C74.7289 61.1772 74.8216 61.1959 74.9076 61.2328C74.9936 61.2697 75.0709 61.324 75.1348 61.3923C75.1987 61.4607 75.2477 61.5415 75.2788 61.6298C75.3098 61.718 75.3222 61.8117 75.3151 61.905C75.3086 62.0989 75.2274 62.2827 75.0886 62.4182C74.9497 62.5536 74.7639 62.6302 74.57 62.632Z" fill="#FCAF17"/>
<path id="Vector_37" d="M87.3938 62.632H80.9417C80.8482 62.6328 80.7555 62.6141 80.6695 62.5772C80.5836 62.5403 80.5062 62.486 80.4423 62.4177C80.3784 62.3493 80.3294 62.2685 80.2984 62.1802C80.2673 62.092 80.2549 61.9983 80.262 61.905C80.2692 61.7145 80.3481 61.5337 80.4829 61.3989C80.6177 61.2641 80.7985 61.1852 80.989 61.178H87.4411C87.5346 61.1772 87.6273 61.1959 87.7133 61.2328C87.7992 61.2697 87.8766 61.324 87.9405 61.3923C88.0044 61.4607 88.0534 61.5415 88.0844 61.6298C88.1155 61.718 88.1278 61.8117 88.1208 61.905C88.1136 62.0955 88.0347 62.2763 87.8999 62.4111C87.7651 62.5459 87.5843 62.6248 87.3938 62.632Z" fill="#FCAF17"/>
<path id="Vector_38" d="M100.222 62.632H93.7698C93.6763 62.6328 93.5836 62.6141 93.4976 62.5772C93.4117 62.5403 93.3343 62.486 93.2704 62.4177C93.2065 62.3493 93.1575 62.2685 93.1264 62.1802C93.0954 62.092 93.083 61.9983 93.0901 61.905C93.0975 61.7114 93.1789 61.5281 93.3176 61.3928C93.4563 61.2576 93.6415 61.1807 93.8352 61.178H100.287C100.381 61.1772 100.474 61.1959 100.56 61.2328C100.645 61.2697 100.723 61.324 100.787 61.3923C100.851 61.4607 100.9 61.5415 100.931 61.6298C100.962 61.718 100.974 61.8117 100.967 61.905C100.96 62.0986 100.878 62.2819 100.74 62.4172C100.601 62.5524 100.416 62.6293 100.222 62.632Z" fill="#FCAF17"/>
<path id="Vector_39" d="M113.05 62.632H106.597C106.504 62.6328 106.411 62.6141 106.325 62.5772C106.239 62.5403 106.162 62.486 106.098 62.4177C106.034 62.3493 105.985 62.2685 105.954 62.1802C105.923 62.092 105.911 61.9983 105.918 61.905C105.925 61.7114 106.007 61.5281 106.145 61.3928C106.284 61.2576 106.469 61.1807 106.663 61.178H113.111C113.205 61.1773 113.298 61.1959 113.384 61.2328C113.47 61.2696 113.548 61.3239 113.612 61.3922C113.676 61.4604 113.725 61.5412 113.757 61.6295C113.788 61.7177 113.801 61.8115 113.795 61.905C113.787 62.0986 113.706 62.2819 113.567 62.4172C113.429 62.5524 113.243 62.6293 113.05 62.632Z" fill="#FCAF17"/>
<g id="Group_3" opacity="0.3">
<path id="Vector_40" d="M48.9138 62.6325H42.4617C42.3682 62.6332 42.2755 62.6146 42.1895 62.5777C42.1036 62.5408 42.0262 62.4865 41.9623 62.4182C41.8984 62.3498 41.8494 62.269 41.8184 62.1807C41.7873 62.0925 41.7749 61.9988 41.782 61.9055C41.7892 61.715 41.8681 61.5342 42.0029 61.3994C42.1377 61.2646 42.3185 61.1857 42.509 61.1785H48.9611C49.0546 61.1777 49.1473 61.1964 49.2333 61.2333C49.3192 61.2702 49.3966 61.3245 49.4605 61.3928C49.5244 61.4611 49.5734 61.542 49.6044 61.6302C49.6355 61.7185 49.6479 61.8122 49.6408 61.9055C49.6336 62.096 49.5547 62.2768 49.4199 62.4116C49.2851 62.5464 49.1043 62.6253 48.9138 62.6325Z" fill="black"/>
<path id="Vector_41" d="M61.7419 62.6325H55.2898C55.1963 62.6332 55.1036 62.6146 55.0176 62.5777C54.9317 62.5408 54.8543 62.4865 54.7904 62.4182C54.7265 62.3498 54.6775 62.269 54.6465 62.1807C54.6154 62.0925 54.603 61.9988 54.6101 61.9055C54.6175 61.7119 54.6989 61.5286 54.8376 61.3933C54.9763 61.258 55.1615 61.1811 55.3552 61.1785H61.8037C61.8974 61.1778 61.9902 61.1964 62.0763 61.2333C62.1625 61.2701 62.2401 61.3244 62.3042 61.3927C62.3684 61.4609 62.4178 61.5417 62.4492 61.63C62.4807 61.7182 62.4936 61.812 62.4871 61.9055C62.4796 62.0991 62.3982 62.2824 62.2595 62.4177C62.1209 62.5529 61.9356 62.6298 61.7419 62.6325Z" fill="black"/>
<path id="Vector_42" d="M74.5698 62.6325H68.1177C68.0241 62.6332 67.9312 62.6146 67.8451 62.5777C67.7589 62.5409 67.6813 62.4866 67.6172 62.4183C67.553 62.3501 67.5036 62.2693 67.4722 62.181C67.4407 62.0928 67.4278 61.999 67.4344 61.9055C67.4418 61.7119 67.5232 61.5286 67.6619 61.3933C67.8005 61.258 67.9858 61.1811 68.1795 61.1785H74.6353C74.7288 61.1777 74.8215 61.1964 74.9074 61.2333C74.9934 61.2702 75.0708 61.3245 75.1347 61.3928C75.1986 61.4611 75.2476 61.542 75.2786 61.6302C75.3096 61.7185 75.322 61.8122 75.315 61.9055C75.3084 62.0994 75.2273 62.2832 75.0884 62.4187C74.9496 62.5541 74.7638 62.6307 74.5698 62.6325Z" fill="black"/>
<path id="Vector_43" d="M87.3937 62.6325H80.9416C80.848 62.6332 80.7553 62.6146 80.6694 62.5777C80.5834 62.5408 80.506 62.4865 80.4422 62.4182C80.3783 62.3498 80.3293 62.269 80.2982 62.1807C80.2672 62.0925 80.2548 61.9988 80.2618 61.9055C80.269 61.715 80.3479 61.5342 80.4827 61.3994C80.6176 61.2646 80.7983 61.1857 80.9888 61.1785H87.4409C87.5345 61.1777 87.6271 61.1964 87.7131 61.2333C87.7991 61.2702 87.8764 61.3245 87.9403 61.3928C88.0042 61.4611 88.0532 61.542 88.0843 61.6302C88.1153 61.7185 88.1277 61.8122 88.1207 61.9055C88.1135 62.096 88.0346 62.2768 87.8997 62.4116C87.7649 62.5464 87.5842 62.6253 87.3937 62.6325Z" fill="black"/>
<path id="Vector_44" d="M100.222 62.6325H93.7697C93.6761 62.6332 93.5834 62.6146 93.4975 62.5777C93.4115 62.5408 93.3341 62.4865 93.2702 62.4182C93.2064 62.3498 93.1573 62.269 93.1263 62.1807C93.0953 62.0925 93.0829 61.9988 93.0899 61.9055C93.0973 61.7119 93.1788 61.5286 93.3175 61.3933C93.4561 61.258 93.6414 61.1811 93.8351 61.1785H100.287C100.381 61.1777 100.473 61.1964 100.559 61.2333C100.645 61.2702 100.723 61.3245 100.787 61.3928C100.85 61.4611 100.899 61.542 100.931 61.6302C100.962 61.7185 100.974 61.8122 100.967 61.9055C100.959 62.0991 100.878 62.2824 100.739 62.4177C100.601 62.5529 100.415 62.6298 100.222 62.6325Z" fill="black"/>
<path id="Vector_45" d="M113.049 62.6325H106.597C106.504 62.6332 106.411 62.6146 106.325 62.5777C106.239 62.5408 106.162 62.4865 106.098 62.4182C106.034 62.3498 105.985 62.269 105.954 62.1807C105.923 62.0925 105.911 61.9988 105.918 61.9055C105.925 61.7119 106.006 61.5286 106.145 61.3933C106.284 61.258 106.469 61.1811 106.663 61.1785H113.111C113.205 61.1778 113.298 61.1964 113.384 61.2333C113.47 61.2701 113.548 61.3244 113.612 61.3927C113.676 61.4609 113.725 61.5417 113.757 61.63C113.788 61.7182 113.801 61.812 113.795 61.9055C113.787 62.0991 113.706 62.2824 113.567 62.4177C113.428 62.5529 113.243 62.6298 113.049 62.6325Z" fill="black"/>
</g>
<path id="Vector_46" d="M49.2703 76.3624H40.8662C40.6819 76.3632 40.4994 76.3263 40.3298 76.2541C40.1602 76.1819 40.0071 76.0759 39.8799 75.9425C39.7526 75.8092 39.6539 75.6513 39.5898 75.4785C39.5256 75.3057 39.4974 75.1216 39.5068 74.9375L39.8702 66.5334C39.8923 66.1514 40.0583 65.792 40.3349 65.5276C40.6115 65.2632 40.978 65.1134 41.3606 65.1085H49.7647C49.949 65.1078 50.1315 65.1446 50.3011 65.2168C50.4707 65.289 50.6238 65.3951 50.751 65.5284C50.8783 65.6618 50.977 65.8197 51.0411 65.9925C51.1053 66.1653 51.1335 66.3494 51.1241 66.5334L50.7606 74.9375C50.7378 75.3192 50.5715 75.6781 50.2951 75.9424C50.0187 76.2067 49.6526 76.3567 49.2703 76.3624Z" fill="#FCAF17"/>
<path id="Vector_47" d="M62.0981 76.3624H53.6941C53.5096 76.3637 53.3268 76.3272 53.157 76.2552C52.9871 76.1831 52.8338 76.0771 52.7065 75.9437C52.5791 75.8102 52.4805 75.6521 52.4165 75.479C52.3525 75.306 52.3247 75.1217 52.3346 74.9375L52.6981 66.5334C52.7201 66.1514 52.8862 65.792 53.1627 65.5276C53.4393 65.2632 53.8058 65.1134 54.1884 65.1085H62.6034C62.7879 65.1078 62.9706 65.1447 63.1403 65.2168C63.3101 65.289 63.4634 65.3949 63.591 65.5282C63.7185 65.6615 63.8176 65.8194 63.8821 65.9922C63.9467 66.165 63.9754 66.3492 63.9665 66.5334L63.5848 74.9375C63.5637 75.3192 63.3984 75.6786 63.1224 75.9431C62.8465 76.2076 62.4804 76.3575 62.0981 76.3624Z" fill="#FCAF17"/>
<path id="Vector_48" d="M74.9223 76.3624H66.5219C66.3374 76.3631 66.1547 76.3263 65.9849 76.2541C65.8152 76.182 65.6618 76.076 65.5343 75.9427C65.4068 75.8094 65.3077 75.6516 65.2432 75.4787C65.1786 75.3059 65.1499 75.1218 65.1588 74.9375L65.5223 66.5335C65.5443 66.1515 65.7104 65.792 65.9869 65.5276C66.2635 65.2632 66.63 65.1134 67.0126 65.1086H75.4131C75.5975 65.1073 75.7803 65.1438 75.9501 65.2158C76.12 65.2878 76.2733 65.3938 76.4006 65.5273C76.528 65.6608 76.6267 65.8189 76.6906 65.9919C76.7546 66.165 76.7825 66.3492 76.7725 66.5335L76.409 74.9375C76.387 75.3189 76.2215 75.6778 75.9457 75.9422C75.6699 76.2065 75.3043 76.3566 74.9223 76.3624Z" fill="#FCAF17"/>
<path id="Vector_49" d="M87.7502 76.3624H79.3607C79.176 76.3636 78.9931 76.3272 78.8231 76.2552C78.6531 76.1832 78.4995 76.0773 78.3719 75.9438C78.2443 75.8104 78.1452 75.6524 78.0809 75.4793C78.0165 75.3063 77.9881 75.1219 77.9976 74.9375L78.3611 66.5334C78.3822 66.1518 78.5475 65.7923 78.8234 65.5278C79.0994 65.2633 79.4655 65.1135 79.8478 65.1085H88.2518C88.4361 65.1078 88.6187 65.1446 88.7883 65.2168C88.9579 65.289 89.111 65.3951 89.2382 65.5284C89.3654 65.6618 89.4642 65.8197 89.5283 65.9925C89.5925 66.1653 89.6207 66.3494 89.6113 66.5334L89.2478 74.9375C89.2257 75.3207 89.0586 75.6812 88.7805 75.9458C88.5024 76.2104 88.1341 76.3594 87.7502 76.3624Z" fill="#FCAF17"/>
<path id="Vector_50" d="M100.578 76.3624H92.1737C91.9894 76.3632 91.8069 76.3263 91.6373 76.2541C91.4677 76.1819 91.3146 76.0759 91.1873 75.9425C91.0601 75.8092 90.9614 75.6513 90.8972 75.4785C90.8331 75.3057 90.8048 75.1216 90.8142 74.9375L91.1777 66.5335C91.1998 66.1515 91.3658 65.792 91.6424 65.5276C91.9189 65.2632 92.2855 65.1134 92.6681 65.1086H101.069C101.253 65.1073 101.436 65.1438 101.606 65.2158C101.776 65.2878 101.93 65.3937 102.057 65.5271C102.185 65.6605 102.284 65.8186 102.348 65.9916C102.413 66.1647 102.441 66.3491 102.432 66.5335L102.068 74.9375C102.045 75.3192 101.879 75.6782 101.603 75.9424C101.326 76.2067 100.96 76.3567 100.578 76.3624Z" fill="#FCAF17"/>
<path id="Vector_51" d="M113.402 76.3624H105.002C104.817 76.3637 104.634 76.3272 104.464 76.2552C104.295 76.1831 104.141 76.0771 104.014 75.9437C103.887 75.8102 103.788 75.6521 103.724 75.479C103.66 75.306 103.632 75.1217 103.642 74.9375L104.006 66.5334C104.028 66.1514 104.194 65.792 104.47 65.5276C104.747 65.2632 105.113 65.1134 105.496 65.1085H113.896C114.081 65.1078 114.264 65.1447 114.433 65.2168C114.603 65.289 114.756 65.3949 114.884 65.5282C115.011 65.6615 115.111 65.8194 115.175 65.9922C115.24 66.165 115.268 66.3492 115.259 66.5334L114.878 74.9375C114.857 75.3173 114.693 75.6752 114.419 75.9394C114.146 76.2037 113.782 76.3547 113.402 76.3624Z" fill="#FCAF17"/>
<g id="Group_4" opacity="0.8">
<path id="Vector_52" d="M49.2703 76.3613H40.8663C40.6819 76.3621 40.4994 76.3252 40.3298 76.253C40.1602 76.1808 40.0071 76.0748 39.8799 75.9414C39.7526 75.8081 39.6539 75.6502 39.5898 75.4774C39.5256 75.3046 39.4974 75.1205 39.5068 74.9364L39.8703 66.5323C39.8923 66.1503 40.0583 65.7909 40.3349 65.5265C40.6115 65.2621 40.978 65.1123 41.3606 65.1074H49.7647C49.949 65.1067 50.1315 65.1435 50.3011 65.2157C50.4707 65.2879 50.6238 65.394 50.7511 65.5273C50.8783 65.6607 50.977 65.8186 51.0412 65.9914C51.1053 66.1642 51.1335 66.3483 51.1242 66.5323L50.7607 74.9364C50.7378 75.3181 50.5715 75.6771 50.2951 75.9413C50.0187 76.2056 49.6527 76.3556 49.2703 76.3613Z" fill="#FAFAFA"/>
<path id="Vector_53" d="M62.0982 76.3613H53.6941C53.5096 76.3626 53.3268 76.3261 53.157 76.2541C52.9872 76.182 52.8338 76.076 52.7065 75.9426C52.5792 75.8091 52.4805 75.651 52.4165 75.4779C52.3526 75.3049 52.3247 75.1206 52.3346 74.9364L52.6981 66.5323C52.7201 66.1503 52.8862 65.7909 53.1628 65.5265C53.4393 65.2621 53.8058 65.1123 54.1884 65.1074H62.6034C62.7879 65.1067 62.9706 65.1436 63.1404 65.2157C63.3101 65.2879 63.4635 65.3938 63.591 65.5271C63.7185 65.6604 63.8176 65.8183 63.8821 65.9911C63.9467 66.1639 63.9754 66.3481 63.9665 66.5323L63.5849 74.9364C63.5637 75.3181 63.3984 75.6775 63.1225 75.942C62.8465 76.2065 62.4804 76.3564 62.0982 76.3613Z" fill="#FAFAFA"/>
<path id="Vector_54" d="M74.9223 76.3613H66.5219C66.3374 76.362 66.1547 76.3252 65.985 76.253C65.8152 76.1809 65.6619 76.0749 65.5343 75.9416C65.4068 75.8083 65.3078 75.6505 65.2432 75.4776C65.1786 75.3048 65.1499 75.1207 65.1588 74.9364L65.5223 66.5324C65.5443 66.1504 65.7104 65.7909 65.9869 65.5265C66.2635 65.2621 66.63 65.1123 67.0126 65.1075H75.4131C75.5975 65.1062 75.7803 65.1427 75.9501 65.2147C76.12 65.2867 76.2733 65.3927 76.4006 65.5262C76.528 65.6597 76.6267 65.8178 76.6906 65.9908C76.7546 66.1639 76.7825 66.3481 76.7725 66.5324L76.409 74.9364C76.3871 75.3178 76.2215 75.6767 75.9457 75.9411C75.6699 76.2054 75.3043 76.3555 74.9223 76.3613Z" fill="#FAFAFA"/>
<path id="Vector_55" d="M87.7502 76.3613H79.3607C79.1761 76.3625 78.9931 76.3261 78.8231 76.2541C78.6531 76.1821 78.4995 76.0762 78.3719 75.9427C78.2443 75.8093 78.1453 75.6513 78.0809 75.4782C78.0165 75.3052 77.9882 75.1208 77.9976 74.9364L78.3611 66.5323C78.3822 66.1507 78.5475 65.7912 78.8235 65.5267C79.0994 65.2622 79.4655 65.1124 79.8478 65.1074H88.2518C88.4362 65.1067 88.6187 65.1435 88.7883 65.2157C88.9579 65.2879 89.111 65.394 89.2382 65.5273C89.3655 65.6607 89.4642 65.8186 89.5283 65.9914C89.5925 66.1642 89.6207 66.3483 89.6113 66.5323L89.2478 74.9364C89.2257 75.3196 89.0586 75.6801 88.7805 75.9447C88.5024 76.2093 88.1341 76.3583 87.7502 76.3613Z" fill="#FAFAFA"/>
<path id="Vector_56" d="M100.578 76.3613H92.1737C91.9894 76.3621 91.8069 76.3252 91.6373 76.253C91.4677 76.1808 91.3146 76.0748 91.1873 75.9414C91.0601 75.8081 90.9614 75.6502 90.8973 75.4774C90.8331 75.3046 90.8049 75.1205 90.8143 74.9364L91.1778 66.5324C91.1998 66.1504 91.3658 65.7909 91.6424 65.5265C91.919 65.2621 92.2855 65.1123 92.6681 65.1075H101.069C101.253 65.1062 101.436 65.1427 101.606 65.2147C101.776 65.2867 101.93 65.3926 102.057 65.526C102.185 65.6594 102.284 65.8175 102.348 65.9905C102.413 66.1636 102.441 66.348 102.432 66.5324L102.068 74.9364C102.045 75.3181 101.879 75.6771 101.603 75.9413C101.326 76.2056 100.96 76.3556 100.578 76.3613Z" fill="#FAFAFA"/>
<path id="Vector_57" d="M113.402 76.3613H105.002C104.817 76.3626 104.634 76.3261 104.464 76.2541C104.295 76.182 104.141 76.076 104.014 75.9426C103.887 75.8091 103.788 75.651 103.724 75.4779C103.66 75.3049 103.632 75.1206 103.642 74.9364L104.006 66.5323C104.028 66.1503 104.194 65.7909 104.47 65.5265C104.747 65.2621 105.113 65.1123 105.496 65.1074H113.896C114.081 65.1067 114.264 65.1436 114.433 65.2157C114.603 65.2879 114.756 65.3938 114.884 65.5271C115.011 65.6604 115.111 65.8183 115.175 65.9911C115.24 66.1639 115.268 66.3481 115.259 66.5323L114.878 74.9364C114.857 75.3162 114.693 75.6741 114.419 75.9383C114.146 76.2026 113.782 76.3536 113.402 76.3613Z" fill="#FAFAFA"/>
</g>
<path id="Vector_58" d="M48.6815 89.4009H40.2775C40.0932 89.4016 39.9106 89.3647 39.741 89.2925C39.5714 89.2204 39.4183 89.1143 39.2911 88.981C39.1639 88.8476 39.0651 88.6897 39.001 88.5169C38.9368 88.3441 38.9086 88.16 38.918 87.976L39.2815 79.5719C39.3044 79.1902 39.4707 78.8312 39.7471 78.567C40.0234 78.3027 40.3895 78.1527 40.7718 78.147H49.1904C49.3748 78.1462 49.5573 78.1831 49.7269 78.2553C49.8965 78.3275 50.0496 78.4335 50.1768 78.5669C50.3041 78.7002 50.4028 78.8581 50.4669 79.0309C50.5311 79.2037 50.5593 79.3878 50.5499 79.5719L50.1864 87.976C50.1634 88.3601 49.995 88.7212 49.7155 88.9858C49.4361 89.2504 49.0664 89.3988 48.6815 89.4009Z" fill="#FCAF17"/>
<path id="Vector_59" d="M61.5092 89.4009H53.1051C52.9208 89.4016 52.7383 89.3648 52.5687 89.2926C52.3991 89.2204 52.246 89.1144 52.1187 88.981C51.9915 88.8476 51.8928 88.6897 51.8286 88.5169C51.7645 88.3441 51.7362 88.1601 51.7456 87.976L52.1091 79.5719C52.1312 79.1899 52.2972 78.8305 52.5738 78.5661C52.8503 78.3016 53.2169 78.1519 53.5995 78.147H61.9999C62.186 78.1457 62.3703 78.1826 62.5416 78.2554C62.7128 78.3282 62.8673 78.4354 62.9954 78.5704C63.1235 78.7053 63.2226 78.8651 63.2864 79.0399C63.3503 79.2147 63.3776 79.4007 63.3667 79.5865L63.0032 87.976C62.9819 88.3589 62.8156 88.7193 62.5381 88.984C62.2606 89.2487 61.8927 89.3978 61.5092 89.4009Z" fill="#FCAF17"/>
<path id="Vector_60" d="M74.3334 89.4009H65.9329C65.7485 89.4021 65.5657 89.3656 65.3959 89.2936C65.226 89.2216 65.0727 89.1156 64.9454 88.9821C64.818 88.8487 64.7193 88.6906 64.6554 88.5175C64.5914 88.3445 64.5635 88.1602 64.5735 87.976L64.937 79.5719C64.959 79.1899 65.125 78.8305 65.4016 78.5661C65.6782 78.3016 66.0447 78.1519 66.4273 78.147H74.8277C75.0122 78.1457 75.195 78.1822 75.3648 78.2543C75.5347 78.3263 75.688 78.4323 75.8153 78.5657C75.9427 78.6992 76.0413 78.8573 76.1053 79.0304C76.1693 79.2034 76.1971 79.3877 76.1872 79.5719L75.8237 87.976C75.8017 88.358 75.6356 88.7174 75.3591 88.9818C75.0825 89.2463 74.716 89.396 74.3334 89.4009Z" fill="#FCAF17"/>
<path id="Vector_61" d="M87.1612 89.4011H78.7608C78.5763 89.4018 78.3936 89.3649 78.2238 89.2928C78.054 89.2206 77.9007 89.1147 77.7732 88.9814C77.6457 88.8481 77.5466 88.6902 77.4821 88.5174C77.4175 88.3446 77.3888 88.1604 77.3977 87.9762L77.7612 79.5721C77.7823 79.1904 77.9476 78.831 78.2235 78.5665C78.4995 78.302 78.8656 78.1521 79.2479 78.1472H87.6519C87.8391 78.1438 88.0249 78.1792 88.1976 78.2512C88.3704 78.3232 88.5264 78.4301 88.6558 78.5653C88.7853 78.7006 88.8853 78.8611 88.9496 79.0369C89.0139 79.2126 89.0412 79.3998 89.0296 79.5866L88.6661 87.9907C88.6403 88.3726 88.4707 88.7305 88.1914 88.9923C87.9121 89.254 87.544 89.4001 87.1612 89.4011Z" fill="#FCAF17"/>
<path id="Vector_62" d="M99.989 89.4005H91.585C91.4006 89.4013 91.2181 89.3644 91.0485 89.2922C90.8789 89.22 90.7258 89.114 90.5986 88.9806C90.4713 88.8473 90.3726 88.6894 90.3085 88.5166C90.2443 88.3438 90.2161 88.1597 90.2255 87.9756L90.589 79.5715C90.6083 79.1866 90.7736 78.8236 91.0511 78.5562C91.3286 78.2888 91.6976 78.1371 92.0829 78.1321H100.487C100.671 78.1314 100.854 78.1682 101.023 78.2404C101.193 78.3126 101.346 78.4186 101.473 78.552C101.601 78.6853 101.699 78.8433 101.763 79.0161C101.828 79.1889 101.856 79.3729 101.846 79.557L101.483 87.9611C101.464 88.346 101.298 88.709 101.021 88.9764C100.743 89.2438 100.374 89.3955 99.989 89.4005Z" fill="#FCAF17"/>
<path id="Vector_63" d="M112.802 89.4009H104.413C104.228 89.4021 104.046 89.3656 103.876 89.2936C103.706 89.2216 103.553 89.1156 103.425 88.9821C103.298 88.8486 103.199 88.6905 103.135 88.5175C103.071 88.3445 103.043 88.1602 103.053 87.976L103.417 79.5719C103.439 79.1899 103.605 78.8305 103.881 78.566C104.158 78.3016 104.525 78.1519 104.907 78.147H113.308C113.492 78.1463 113.675 78.1831 113.845 78.2553C114.014 78.3274 114.168 78.4334 114.295 78.5667C114.423 78.7 114.522 78.8579 114.586 79.0307C114.651 79.2035 114.68 79.3876 114.671 79.5719L114.289 87.976C114.268 88.3576 114.103 88.717 113.827 88.9816C113.551 89.2461 113.185 89.3959 112.802 89.4009Z" fill="#FCAF17"/>
<g id="Group_5" opacity="0.8">
<path id="Vector_64" d="M48.6817 89.4006H40.2776C40.0933 89.4014 39.9108 89.3645 39.7412 89.2923C39.5716 89.2201 39.4185 89.1141 39.2912 88.9807C39.164 88.8474 39.0653 88.6895 39.0011 88.5167C38.937 88.3439 38.9087 88.1598 38.9181 87.9757L39.2816 79.5716C39.3045 79.1899 39.4708 78.831 39.7472 78.5667C40.0236 78.3025 40.3896 78.1525 40.772 78.1467H49.1906C49.3749 78.146 49.5574 78.1829 49.727 78.2551C49.8966 78.3272 50.0497 78.4333 50.177 78.5666C50.3042 78.7 50.4029 78.8579 50.4671 79.0307C50.5312 79.2035 50.5594 79.3876 50.5501 79.5716L50.1866 87.9757C50.1635 88.3599 49.9951 88.7209 49.7157 88.9855C49.4362 89.2502 49.0665 89.3985 48.6817 89.4006Z" fill="#FAFAFA"/>
<path id="Vector_65" d="M61.5093 89.4006H53.1052C52.9209 89.4014 52.7384 89.3645 52.5688 89.2923C52.3992 89.2201 52.2461 89.1141 52.1189 88.9808C51.9916 88.8474 51.8929 88.6895 51.8288 88.5167C51.7646 88.3439 51.7364 88.1598 51.7458 87.9757L52.1093 79.5717C52.1313 79.1897 52.2973 78.8302 52.5739 78.5658C52.8505 78.3014 53.217 78.1516 53.5996 78.1468H62C62.1861 78.1454 62.3705 78.1823 62.5417 78.2552C62.7129 78.328 62.8674 78.4352 62.9955 78.5701C63.1237 78.7051 63.2227 78.8649 63.2866 79.0397C63.3504 79.2144 63.3777 79.4005 63.3668 79.5862L63.0033 87.9757C62.982 88.3587 62.8158 88.7191 62.5382 88.9838C62.2607 89.2485 61.8928 89.3975 61.5093 89.4006Z" fill="#FAFAFA"/>
<path id="Vector_66" d="M74.334 89.4006H65.9335C65.749 89.4019 65.5663 89.3654 65.3964 89.2934C65.2266 89.2214 65.0733 89.1154 64.9459 88.9819C64.8186 88.8484 64.7199 88.6903 64.6559 88.5173C64.592 88.3442 64.5641 88.1599 64.574 87.9757L64.9375 79.5717C64.9596 79.1897 65.1256 78.8302 65.4022 78.5658C65.6787 78.3014 66.0453 78.1516 66.4279 78.1468H74.8283C75.0128 78.1455 75.1956 78.182 75.3654 78.254C75.5352 78.326 75.6885 78.432 75.8159 78.5655C75.9432 78.699 76.0419 78.8571 76.1059 79.0301C76.1698 79.2032 76.1977 79.3875 76.1878 79.5717L75.8243 87.9757C75.8022 88.3577 75.6362 88.7172 75.3596 88.9816C75.0831 89.246 74.7166 89.3958 74.334 89.4006Z" fill="#FAFAFA"/>
<path id="Vector_67" d="M87.1618 89.4008H78.7613C78.5769 89.4015 78.3942 89.3647 78.2244 89.2925C78.0546 89.2204 77.9013 89.1144 77.7738 88.9811C77.6462 88.8478 77.5472 88.69 77.4826 88.5171C77.4181 88.3443 77.3893 88.1602 77.3982 87.9759L77.7617 79.5719C77.7829 79.1902 77.9481 78.8308 78.2241 78.5663C78.5001 78.3018 78.8662 78.1519 79.2484 78.1469H87.6525C87.8396 78.1436 88.0254 78.179 88.1982 78.251C88.371 78.3229 88.527 78.4299 88.6564 78.5651C88.7858 78.7003 88.8859 78.8609 88.9502 79.0366C89.0145 79.2124 89.0417 79.3996 89.0302 79.5864L88.6667 87.9905C88.6409 88.3724 88.4713 88.7303 88.192 88.992C87.9127 89.2538 87.5445 89.3999 87.1618 89.4008Z" fill="#FAFAFA"/>
<path id="Vector_68" d="M99.9892 89.4011H91.5851C91.4008 89.4019 91.2182 89.365 91.0486 89.2928C90.879 89.2206 90.7259 89.1146 90.5987 88.9812C90.4715 88.8479 90.3728 88.69 90.3086 88.5172C90.2445 88.3444 90.2162 88.1603 90.2256 87.9762L90.5891 79.5721C90.6085 79.1873 90.7737 78.8242 91.0513 78.5568C91.3288 78.2894 91.6977 78.1378 92.0831 78.1327H100.487C100.671 78.132 100.854 78.1688 101.024 78.241C101.193 78.3132 101.346 78.4192 101.474 78.5526C101.601 78.686 101.699 78.8439 101.764 79.0167C101.828 79.1895 101.856 79.3735 101.847 79.5576L101.483 87.9617C101.464 88.3466 101.298 88.7096 101.021 88.977C100.743 89.2444 100.374 89.3961 99.9892 89.4011Z" fill="#FAFAFA"/>
<path id="Vector_69" d="M112.803 89.4006H104.413C104.229 89.4019 104.046 89.3654 103.876 89.2934C103.706 89.2214 103.553 89.1153 103.426 88.9819C103.298 88.8484 103.2 88.6903 103.136 88.5173C103.072 88.3442 103.044 88.1599 103.054 87.9757L103.417 79.5716C103.439 79.1896 103.605 78.8302 103.882 78.5658C104.159 78.3014 104.525 78.1516 104.908 78.1467H113.308C113.493 78.146 113.675 78.1829 113.845 78.255C114.015 78.3272 114.168 78.4331 114.296 78.5664C114.423 78.6997 114.522 78.8576 114.587 79.0304C114.651 79.2032 114.68 79.3874 114.671 79.5716L114.29 87.9757C114.268 88.3574 114.103 88.7168 113.827 88.9813C113.551 89.2458 113.185 89.3957 112.803 89.4006Z" fill="#FAFAFA"/>
</g>
<path id="Vector_70" d="M48.0998 102.436H39.6885C39.504 102.437 39.3212 102.401 39.1514 102.329C38.9816 102.257 38.8282 102.151 38.7009 102.017C38.5736 101.884 38.4749 101.725 38.4109 101.552C38.347 101.379 38.3191 101.195 38.329 101.011L38.6925 92.6105C38.7145 92.2285 38.8806 91.8691 39.1572 91.6046C39.4337 91.3402 39.8002 91.1905 40.1828 91.1856H48.5869C48.7714 91.1843 48.9542 91.2208 49.124 91.2928C49.2938 91.3649 49.4471 91.4709 49.5745 91.6043C49.7018 91.7378 49.8005 91.8959 49.8645 92.069C49.9284 92.242 49.9563 92.4263 49.9464 92.6105L49.5829 101.011C49.5618 101.392 49.397 101.751 49.1218 102.015C48.8466 102.28 48.4814 102.43 48.0998 102.436Z" fill="#FCAF17"/>
<path id="Vector_71" d="M60.9202 102.436H52.5161C52.3316 102.437 52.1489 102.401 51.979 102.329C51.8092 102.257 51.6559 102.151 51.5285 102.017C51.4012 101.884 51.3025 101.726 51.2385 101.552C51.1746 101.379 51.1467 101.195 51.1566 101.011L51.5201 92.6105C51.5413 92.2282 51.7071 91.8683 51.9839 91.6037C52.2606 91.3391 52.6276 91.1896 53.0105 91.1856H61.4109C61.5957 91.1839 61.7789 91.22 61.9491 91.2918C62.1194 91.3636 62.2732 91.4695 62.4009 91.603C62.5286 91.7365 62.6276 91.8948 62.6918 92.0681C62.756 92.2414 62.784 92.426 62.774 92.6105L62.4105 101.011C62.3902 101.394 62.2247 101.754 61.9477 102.019C61.6708 102.284 61.3033 102.433 60.9202 102.436Z" fill="#FCAF17"/>
<path id="Vector_72" d="M73.7446 102.436H65.3442C65.1597 102.437 64.9769 102.401 64.8071 102.329C64.6373 102.257 64.484 102.151 64.3566 102.017C64.2293 101.884 64.1306 101.725 64.0666 101.552C64.0027 101.379 63.9748 101.195 63.9847 101.011L64.3482 92.6105C64.3694 92.2282 64.5352 91.8683 64.8119 91.6037C65.0887 91.3391 65.4557 91.1896 65.8386 91.1856H74.2717C74.4563 91.1843 74.6393 91.2208 74.8093 91.2928C74.9793 91.3648 75.1328 91.4707 75.2605 91.6041C75.3881 91.7376 75.4871 91.8956 75.5515 92.0687C75.6159 92.2417 75.6442 92.4261 75.6348 92.6105L75.2531 101.011C75.2318 101.396 75.0634 101.759 74.7828 102.024C74.5022 102.289 74.1306 102.436 73.7446 102.436Z" fill="#FCAF17"/>
<path id="Vector_73" d="M86.5722 102.436H78.1718C77.9871 102.437 77.8042 102.401 77.6342 102.329C77.4642 102.257 77.3106 102.151 77.183 102.017C77.0554 101.884 76.9563 101.726 76.892 101.553C76.8276 101.38 76.7992 101.195 76.8087 101.011L77.1722 92.6105C77.1925 92.2285 77.3575 91.8686 77.6336 91.6039C77.9098 91.3392 78.2764 91.1897 78.6589 91.1856H87.0629C87.2474 91.1843 87.4302 91.2208 87.6 91.2928C87.7699 91.3649 87.9232 91.4709 88.0505 91.6043C88.1778 91.7378 88.2765 91.8959 88.3405 92.069C88.4044 92.242 88.4323 92.4263 88.4224 92.6105L88.0589 101.011C88.0377 101.393 87.8725 101.752 87.5965 102.017C87.3205 102.281 86.9544 102.431 86.5722 102.436Z" fill="#FCAF17"/>
<path id="Vector_74" d="M99.4002 102.436H90.9925C90.808 102.437 90.6252 102.401 90.4554 102.329C90.2855 102.257 90.1322 102.151 90.0049 102.017C89.8775 101.884 89.7788 101.725 89.7149 101.552C89.6509 101.379 89.6231 101.195 89.633 101.011L89.9965 92.6105C90.0185 92.2285 90.1846 91.8691 90.4611 91.6046C90.7377 91.3402 91.1042 91.1905 91.4868 91.1856H99.8909C100.075 91.1843 100.258 91.2208 100.428 91.2928C100.598 91.3649 100.751 91.4709 100.878 91.6043C101.006 91.7378 101.104 91.8959 101.168 92.069C101.232 92.242 101.26 92.4263 101.25 92.6105L100.887 101.011C100.865 101.392 100.699 101.751 100.424 102.016C100.148 102.28 99.7821 102.43 99.4002 102.436Z" fill="#FCAF17"/>
<path id="Vector_75" d="M112.228 102.436H103.824C103.64 102.437 103.457 102.401 103.287 102.329C103.117 102.257 102.964 102.151 102.836 102.017C102.709 101.884 102.61 101.725 102.546 101.552C102.483 101.379 102.455 101.195 102.465 101.011L102.828 92.6105C102.849 92.2282 103.015 91.8683 103.292 91.6037C103.569 91.3391 103.936 91.1896 104.318 91.1856H112.719C112.903 91.1843 113.086 91.2208 113.256 91.2928C113.426 91.3648 113.58 91.4707 113.708 91.6041C113.835 91.7376 113.934 91.8956 113.999 92.0687C114.063 92.2417 114.091 92.4261 114.082 92.6105L113.7 101.011C113.68 101.39 113.517 101.748 113.244 102.013C112.971 102.277 112.608 102.428 112.228 102.436Z" fill="#FCAF17"/>
<g id="Group_6" opacity="0.8">
<path id="Vector_76" d="M48.0996 102.436H39.6883C39.5038 102.438 39.321 102.401 39.1512 102.329C38.9814 102.257 38.8281 102.151 38.7007 102.018C38.5734 101.884 38.4747 101.726 38.4107 101.553C38.3468 101.38 38.3189 101.196 38.3288 101.011L38.6923 92.611C38.7143 92.229 38.8804 91.8695 39.157 91.6051C39.4335 91.3407 39.8 91.1909 40.1826 91.1861H48.5867C48.7712 91.1848 48.954 91.2213 49.1238 91.2933C49.2936 91.3653 49.4469 91.4713 49.5743 91.6048C49.7016 91.7383 49.8003 91.8964 49.8643 92.0694C49.9282 92.2425 49.9561 92.4268 49.9462 92.611L49.5827 101.011C49.5616 101.392 49.3968 101.751 49.1216 102.016C48.8464 102.28 48.4812 102.43 48.0996 102.436Z" fill="#FAFAFA"/>
<path id="Vector_77" d="M60.92 102.436H52.5159C52.3315 102.438 52.1487 102.401 51.9788 102.329C51.809 102.257 51.6557 102.151 51.5283 102.018C51.401 101.884 51.3023 101.726 51.2384 101.553C51.1744 101.38 51.1465 101.196 51.1564 101.011L51.5199 92.611C51.5411 92.2287 51.7069 91.8688 51.9837 91.6042C52.2604 91.3396 52.6274 91.1901 53.0103 91.1861H61.4107C61.5955 91.1843 61.7787 91.2205 61.9489 91.2923C62.1192 91.364 62.273 91.47 62.4007 91.6035C62.5284 91.737 62.6274 91.8953 62.6916 92.0686C62.7558 92.2419 62.7838 92.4265 62.7738 92.611L62.4103 101.011C62.39 101.394 62.2245 101.754 61.9475 102.019C61.6706 102.284 61.3031 102.433 60.92 102.436Z" fill="#FAFAFA"/>
<path id="Vector_78" d="M73.7444 102.436H65.344C65.1595 102.438 64.9768 102.401 64.8069 102.329C64.6371 102.257 64.4838 102.151 64.3564 102.018C64.2291 101.884 64.1304 101.726 64.0664 101.553C64.0025 101.38 63.9746 101.196 63.9845 101.011L64.348 92.611C64.3692 92.2287 64.535 91.8687 64.8117 91.6042C65.0885 91.3396 65.4555 91.1901 65.8384 91.1861H74.2715C74.4561 91.1848 74.6391 91.2213 74.8091 91.2933C74.9791 91.3653 75.1326 91.4712 75.2603 91.6046C75.3879 91.738 75.4869 91.8961 75.5513 92.0692C75.6157 92.2422 75.644 92.4266 75.6346 92.611L75.253 101.011C75.2316 101.397 75.0632 101.759 74.7826 102.024C74.502 102.29 74.1304 102.437 73.7444 102.436Z" fill="#FAFAFA"/>
<path id="Vector_79" d="M86.5724 102.436H78.172C77.9874 102.438 77.8044 102.401 77.6344 102.329C77.4644 102.257 77.3109 102.151 77.1832 102.018C77.0556 101.884 76.9566 101.726 76.8922 101.553C76.8278 101.38 76.7995 101.196 76.8089 101.011L77.1724 92.611C77.1927 92.229 77.3577 91.8691 77.6338 91.6044C77.91 91.3397 78.2766 91.1901 78.6591 91.1861H87.0632C87.2476 91.1848 87.4304 91.2213 87.6003 91.2933C87.7701 91.3653 87.9234 91.4713 88.0507 91.6048C88.1781 91.7383 88.2768 91.8964 88.3407 92.0694C88.4047 92.2425 88.4326 92.4268 88.4226 92.611L88.0591 101.011C88.038 101.393 87.8727 101.753 87.5967 102.017C87.3208 102.282 86.9547 102.431 86.5724 102.436Z" fill="#FAFAFA"/>
<path id="Vector_80" d="M99.4 102.436H90.9923C90.8078 102.438 90.625 102.401 90.4552 102.329C90.2853 102.257 90.132 102.151 90.0047 102.018C89.8773 101.884 89.7786 101.726 89.7147 101.553C89.6507 101.38 89.6229 101.196 89.6328 101.011L89.9963 92.611C90.0183 92.229 90.1844 91.8695 90.4609 91.6051C90.7375 91.3407 91.104 91.1909 91.4866 91.1861H99.8907C100.075 91.1848 100.258 91.2213 100.428 91.2933C100.598 91.3653 100.751 91.4713 100.878 91.6048C101.006 91.7383 101.104 91.8964 101.168 92.0694C101.232 92.2425 101.26 92.4268 101.25 92.611L100.887 101.011C100.865 101.393 100.699 101.752 100.423 102.016C100.148 102.28 99.7819 102.431 99.4 102.436Z" fill="#FAFAFA"/>
<path id="Vector_81" d="M112.228 102.436H103.824C103.639 102.438 103.457 102.401 103.287 102.329C103.117 102.257 102.964 102.151 102.836 102.018C102.709 101.884 102.61 101.726 102.546 101.553C102.482 101.38 102.454 101.196 102.464 101.011L102.828 92.611C102.849 92.2287 103.015 91.8687 103.292 91.6042C103.568 91.3396 103.935 91.1901 104.318 91.1861H112.719C112.903 91.1848 113.086 91.2213 113.256 91.2933C113.426 91.3653 113.58 91.4712 113.707 91.6046C113.835 91.738 113.934 91.8961 113.998 92.0692C114.063 92.2422 114.091 92.4266 114.082 92.611L113.7 101.011C113.68 101.391 113.517 101.749 113.244 102.013C112.971 102.277 112.608 102.429 112.228 102.436Z" fill="#FAFAFA"/>
</g>
<path id="Vector_82" d="M45.7189 58.2995C42.6219 58.2995 40.1937 54.6972 40.1937 50.099C40.1937 45.5007 42.6219 41.9021 45.7189 41.9021C48.8159 41.9021 51.2477 45.5044 51.2477 50.099C51.2336 50.3145 51.138 50.5165 50.9804 50.6642C50.8227 50.8118 50.6149 50.894 50.3989 50.894C50.1829 50.894 49.975 50.8118 49.8174 50.6642C49.6598 50.5165 49.5642 50.3145 49.5501 50.099C49.5501 46.5767 47.7981 43.596 45.7189 43.596C43.6397 43.596 41.8876 46.5767 41.8876 50.099C41.8876 53.6213 43.6433 56.6019 45.7189 56.6019C45.835 56.5943 45.9515 56.6107 46.061 56.6499C46.1706 56.6891 46.271 56.7504 46.3559 56.8299C46.4408 56.9095 46.5086 57.0056 46.5549 57.1124C46.6011 57.2192 46.625 57.3343 46.625 57.4507C46.625 57.5671 46.6011 57.6822 46.5549 57.789C46.5086 57.8958 46.4408 57.9919 46.3559 58.0715C46.271 58.1511 46.1706 58.2123 46.061 58.2516C45.9515 58.2908 45.835 58.3071 45.7189 58.2995Z" fill="#FCAF17"/>
<path id="Vector_83" d="M58.5469 58.2995C55.4499 58.2995 53.0218 54.6972 53.0218 50.099C53.0218 45.5007 55.4499 41.9021 58.5469 41.9021C61.6439 41.9021 64.0939 45.5044 64.0939 50.099C64.0798 50.3145 63.9842 50.5165 63.8266 50.6642C63.669 50.8118 63.4611 50.894 63.2451 50.894C63.0292 50.894 62.8213 50.8118 62.6637 50.6642C62.5061 50.5165 62.4105 50.3145 62.3964 50.099C62.3964 46.5767 60.6443 43.596 58.5651 43.596C56.4859 43.596 54.7339 46.5767 54.7339 50.099C54.7339 53.6213 56.4895 56.6019 58.5651 56.6019C58.7806 56.6161 58.9827 56.7116 59.1303 56.8692C59.278 57.0269 59.3601 57.2347 59.3601 57.4507C59.3601 57.6667 59.278 57.8746 59.1303 58.0322C58.9827 58.1898 58.7806 58.2854 58.5651 58.2995H58.5469Z" fill="#FCAF17"/>
<path id="Vector_84" d="M71.3637 58.2995C68.2631 58.2995 65.8349 54.6972 65.8349 50.099C65.8349 45.5007 68.2631 41.9021 71.3637 41.9021C74.4644 41.9021 76.8889 45.5044 76.8889 50.099C76.8889 50.3236 76.7997 50.539 76.6408 50.6979C76.482 50.8567 76.2666 50.9459 76.042 50.9459C75.8173 50.9459 75.6019 50.8567 75.4431 50.6979C75.2842 50.539 75.195 50.3236 75.195 50.099C75.195 46.5767 73.4393 43.596 71.3637 43.596C69.2882 43.596 67.5325 46.5767 67.5325 50.099C67.5325 53.6213 69.2882 56.6019 71.3637 56.6019C71.5793 56.6161 71.7813 56.7116 71.929 56.8692C72.0766 57.0269 72.1588 57.2347 72.1588 57.4507C72.1588 57.6667 72.0766 57.8746 71.929 58.0322C71.7813 58.1898 71.5793 58.2854 71.3637 58.2995Z" fill="#FCAF17"/>
<path id="Vector_85" d="M84.2023 58.2995C81.1017 58.2995 78.6735 54.6972 78.6735 50.099C78.6735 45.5007 81.1017 41.9021 84.2023 41.9021C87.303 41.9021 89.7275 45.5044 89.7275 50.099C89.7275 50.3236 89.6383 50.539 89.4794 50.6979C89.3206 50.8567 89.1052 50.9459 88.8806 50.9459C88.6559 50.9459 88.4405 50.8567 88.2817 50.6979C88.1228 50.539 88.0336 50.3236 88.0336 50.099C88.0336 46.5767 86.2779 43.596 84.2023 43.596C82.1268 43.596 80.3711 46.5767 80.3711 50.099C80.3711 53.6213 82.1231 56.6019 84.2023 56.6019C84.4179 56.6161 84.6199 56.7116 84.7676 56.8692C84.9152 57.0269 84.9974 57.2347 84.9974 57.4507C84.9974 57.6667 84.9152 57.8746 84.7676 58.0322C84.6199 58.1898 84.4179 58.2854 84.2023 58.2995Z" fill="#FCAF17"/>
<path id="Vector_86" d="M97.0268 58.2995C93.9298 58.2995 91.5016 54.6972 91.5016 50.099C91.5016 45.5007 93.9298 41.9021 97.0268 41.9021C100.124 41.9021 102.556 45.5044 102.556 50.099C102.541 50.3145 102.446 50.5165 102.288 50.6642C102.131 50.8118 101.923 50.894 101.707 50.894C101.491 50.894 101.283 50.8118 101.125 50.6642C100.968 50.5165 100.872 50.3145 100.858 50.099C100.858 46.5767 99.106 43.596 97.0268 43.596C94.9476 43.596 93.1955 46.5767 93.1955 50.099C93.1955 53.6213 94.9512 56.6019 97.0268 56.6019C97.1429 56.5943 97.2594 56.6107 97.369 56.6499C97.4785 56.6891 97.5789 56.7504 97.6638 56.8299C97.7488 56.9095 97.8165 57.0056 97.8628 57.1124C97.9091 57.2192 97.9329 57.3343 97.9329 57.4507C97.9329 57.5671 97.9091 57.6822 97.8628 57.789C97.8165 57.8958 97.7488 57.9919 97.6638 58.0715C97.5789 58.1511 97.4785 58.2123 97.369 58.2516C97.2594 58.2908 97.1429 58.3071 97.0268 58.2995Z" fill="#FCAF17"/>
<path id="Vector_87" d="M109.854 58.2995C106.757 58.2995 104.329 54.6972 104.329 50.099C104.329 45.5007 106.757 41.9021 109.854 41.9021C112.951 41.9021 115.383 45.5044 115.383 50.099C115.369 50.3145 115.274 50.5165 115.116 50.6642C114.958 50.8118 114.75 50.894 114.534 50.894C114.318 50.894 114.111 50.8118 113.953 50.6642C113.795 50.5165 113.7 50.3145 113.686 50.099C113.686 46.5767 111.93 43.596 109.854 43.596C107.779 43.596 106.023 46.5767 106.023 50.099C106.023 53.6213 107.779 56.6019 109.854 56.6019C110.07 56.6161 110.272 56.7116 110.42 56.8692C110.567 57.0269 110.649 57.2347 110.649 57.4507C110.649 57.6667 110.567 57.8746 110.42 58.0322C110.272 58.1898 110.07 58.2854 109.854 58.2995Z" fill="#FCAF17"/>
<g id="Group_7" opacity="0.3">
<path id="Vector_88" d="M45.7186 58.2997C42.6216 58.2997 40.1935 54.6975 40.1935 50.0992C40.1935 45.501 42.6216 41.9023 45.7186 41.9023C48.8156 41.9023 51.2474 45.5046 51.2474 50.0992C51.2333 50.3147 51.1377 50.5168 50.9801 50.6644C50.8225 50.8121 50.6146 50.8942 50.3987 50.8942C50.1827 50.8942 49.9748 50.8121 49.8172 50.6644C49.6596 50.5168 49.564 50.3147 49.5499 50.0992C49.5499 46.5769 47.7978 43.5962 45.7186 43.5962C43.6394 43.5962 41.8874 46.5769 41.8874 50.0992C41.8874 53.6215 43.643 56.6022 45.7186 56.6022C45.8348 56.5946 45.9512 56.6109 46.0608 56.6501C46.1704 56.6893 46.2707 56.7506 46.3557 56.8302C46.4406 56.9097 46.5083 57.0059 46.5546 57.1127C46.6009 57.2194 46.6248 57.3346 46.6248 57.451C46.6248 57.5673 46.6009 57.6825 46.5546 57.7893C46.5083 57.896 46.4406 57.9922 46.3557 58.0718C46.2707 58.1513 46.1704 58.2126 46.0608 58.2518C45.9512 58.291 45.8348 58.3073 45.7186 58.2997Z" fill="black"/>
<path id="Vector_89" d="M58.5467 58.2997C55.4497 58.2997 53.0215 54.6975 53.0215 50.0992C53.0215 45.501 55.4497 41.9023 58.5467 41.9023C61.6437 41.9023 64.0937 45.5046 64.0937 50.0992C64.0796 50.3147 63.984 50.5168 63.8264 50.6644C63.6688 50.8121 63.4609 50.8942 63.2449 50.8942C63.0289 50.8942 62.8211 50.8121 62.6634 50.6644C62.5058 50.5168 62.4103 50.3147 62.3961 50.0992C62.3961 46.5769 60.6441 43.5962 58.5649 43.5962C56.4857 43.5962 54.7336 46.5769 54.7336 50.0992C54.7336 53.6215 56.4893 56.6022 58.5649 56.6022C58.7804 56.6163 58.9825 56.7119 59.1301 56.8695C59.2777 57.0271 59.3599 57.235 59.3599 57.451C59.3599 57.6669 59.2777 57.8748 59.1301 58.0324C58.9825 58.1901 58.7804 58.2856 58.5649 58.2997H58.5467Z" fill="black"/>
<path id="Vector_90" d="M71.3635 58.2997C68.2629 58.2997 65.8347 54.6975 65.8347 50.0992C65.8347 45.501 68.2629 41.9023 71.3635 41.9023C74.4641 41.9023 76.8887 45.5046 76.8887 50.0992C76.8887 50.3238 76.7994 50.5393 76.6406 50.6981C76.4818 50.8569 76.2663 50.9462 76.0417 50.9462C75.8171 50.9462 75.6017 50.8569 75.4428 50.6981C75.284 50.5393 75.1948 50.3238 75.1948 50.0992C75.1948 46.5769 73.4391 43.5962 71.3635 43.5962C69.2879 43.5962 67.5322 46.5769 67.5322 50.0992C67.5322 53.6215 69.2879 56.6022 71.3635 56.6022C71.579 56.6163 71.7811 56.7119 71.9287 56.8695C72.0764 57.0271 72.1585 57.235 72.1585 57.451C72.1585 57.6669 72.0764 57.8748 71.9287 58.0324C71.7811 58.1901 71.579 58.2856 71.3635 58.2997Z" fill="black"/>
<path id="Vector_91" d="M84.2021 58.2997C81.1015 58.2997 78.6733 54.6975 78.6733 50.0992C78.6733 45.501 81.1015 41.9023 84.2021 41.9023C87.3027 41.9023 89.7273 45.5046 89.7273 50.0992C89.7273 50.3238 89.638 50.5393 89.4792 50.6981C89.3204 50.8569 89.1049 50.9462 88.8803 50.9462C88.6557 50.9462 88.4403 50.8569 88.2814 50.6981C88.1226 50.5393 88.0334 50.3238 88.0334 50.0992C88.0334 46.5769 86.2777 43.5962 84.2021 43.5962C82.1265 43.5962 80.3708 46.5769 80.3708 50.0992C80.3708 53.6215 82.1229 56.6022 84.2021 56.6022C84.4176 56.6163 84.6197 56.7119 84.7673 56.8695C84.915 57.0271 84.9971 57.235 84.9971 57.451C84.9971 57.6669 84.915 57.8748 84.7673 58.0324C84.6197 58.1901 84.4176 58.2856 84.2021 58.2997Z" fill="black"/>
<path id="Vector_92" d="M97.0265 58.2997C93.9295 58.2997 91.5014 54.6975 91.5014 50.0992C91.5014 45.501 93.9295 41.9023 97.0265 41.9023C100.124 41.9023 102.555 45.5046 102.555 50.0992C102.541 50.3147 102.446 50.5168 102.288 50.6644C102.13 50.8121 101.923 50.8942 101.707 50.8942C101.491 50.8942 101.283 50.8121 101.125 50.6644C100.967 50.5168 100.872 50.3147 100.858 50.0992C100.858 46.5769 99.1058 43.5962 97.0265 43.5962C94.9473 43.5962 93.1953 46.5769 93.1953 50.0992C93.1953 53.6215 94.951 56.6022 97.0265 56.6022C97.1427 56.5946 97.2591 56.6109 97.3687 56.6501C97.4783 56.6893 97.5786 56.7506 97.6636 56.8302C97.7485 56.9097 97.8162 57.0059 97.8625 57.1127C97.9088 57.2194 97.9327 57.3346 97.9327 57.451C97.9327 57.5673 97.9088 57.6825 97.8625 57.7893C97.8162 57.896 97.7485 57.9922 97.6636 58.0718C97.5786 58.1513 97.4783 58.2126 97.3687 58.2518C97.2591 58.291 97.1427 58.3073 97.0265 58.2997Z" fill="black"/>
<path id="Vector_93" d="M109.854 58.2997C106.757 58.2997 104.329 54.6975 104.329 50.0992C104.329 45.501 106.757 41.9023 109.854 41.9023C112.951 41.9023 115.383 45.5046 115.383 50.0992C115.369 50.3147 115.273 50.5168 115.116 50.6644C114.958 50.8121 114.75 50.8942 114.534 50.8942C114.318 50.8942 114.11 50.8121 113.953 50.6644C113.795 50.5168 113.7 50.3147 113.685 50.0992C113.685 46.5769 111.93 43.5962 109.854 43.5962C107.779 43.5962 106.023 46.5769 106.023 50.0992C106.023 53.6215 107.779 56.6022 109.854 56.6022C110.07 56.6163 110.272 56.7119 110.419 56.8695C110.567 57.0271 110.649 57.235 110.649 57.451C110.649 57.6669 110.567 57.8748 110.419 58.0324C110.272 58.1901 110.07 58.2856 109.854 58.2997Z" fill="black"/>
</g>
<path id="Vector_94" d="M85.06 76.8303C82.0939 76.2415 78.7642 76.9285 77.5756 80.0546C76.6196 82.57 77.8446 85.2962 80.4836 85.9614C82.81 86.5466 86.823 85.8305 87.6518 83.1479C88.6005 80.08 84.7438 79.084 82.581 78.9023C81.9303 78.8477 81.9339 79.8655 82.581 79.9201C83.566 80.0037 84.6929 80.0582 85.5653 80.5998C87.3828 81.7376 86.634 83.5623 85.0855 84.4347C83.537 85.3071 81.1633 85.5252 79.633 84.5583C77.9609 83.4932 77.9064 81.1523 78.906 79.6256C80.2182 77.6082 82.6137 77.3828 84.7729 77.8081C85.4126 77.9354 85.6852 76.9539 85.0418 76.8267L85.06 76.8303Z" fill="#FCAF17"/>
<path id="Vector_95" opacity="0.1" d="M85.06 76.8303C82.0939 76.2415 78.7642 76.9285 77.5756 80.0546C76.6196 82.57 77.8446 85.2962 80.4836 85.9614C82.81 86.5466 86.823 85.8305 87.6518 83.1479C88.6005 80.08 84.7438 79.084 82.581 78.9023C81.9303 78.8477 81.9339 79.8655 82.581 79.9201C83.566 80.0037 84.6929 80.0582 85.5653 80.5998C87.3828 81.7376 86.634 83.5623 85.0855 84.4347C83.537 85.3071 81.1633 85.5252 79.633 84.5583C77.9609 83.4932 77.9064 81.1523 78.906 79.6256C80.2182 77.6082 82.6137 77.3828 84.7729 77.8081C85.4126 77.9354 85.6852 76.9539 85.0418 76.8267L85.06 76.8303Z" fill="#FAFAFA"/>
<path id="Vector_96" d="M52.3346 65.1224C55.1712 68.8828 58.3338 72.386 61.7855 75.5911C62.2653 76.0382 62.9887 75.3185 62.5125 74.8641C59.1199 71.7223 56.0097 68.2886 53.2179 64.6026C52.8289 64.0864 51.9456 64.6026 52.3419 65.1151L52.3346 65.1224Z" fill="#FCAF17"/>
<path id="Vector_97" d="M53.3851 75.1659C55.5297 71.3528 59.2847 68.0995 62.836 65.6096C63.3667 65.2461 62.8615 64.3519 62.3235 64.7299C58.6304 67.3253 54.7482 70.6767 52.5091 74.6498C52.4476 74.7655 52.4332 74.9005 52.4688 75.0266C52.5044 75.1527 52.5873 75.2603 52.7002 75.3268C52.8131 75.3933 52.9474 75.4137 53.0749 75.3838C53.2025 75.3538 53.3136 75.2758 53.3851 75.1659Z" fill="#FCAF17"/>
<g id="Group_8" opacity="0.2">
<path id="Vector_98" d="M52.3347 65.1237C55.1713 68.8842 58.3339 72.3873 61.7856 75.5924C62.2654 76.0396 62.9888 75.3198 62.5126 74.8655C59.12 71.7236 56.0098 68.2899 53.218 64.6039C52.829 64.0877 51.9457 64.6039 52.3419 65.1164L52.3347 65.1237Z" fill="black"/>
<path id="Vector_99" d="M53.3852 75.1673C55.5298 71.3542 59.2848 68.1009 62.8361 65.6109C63.3668 65.2474 62.8616 64.3532 62.3236 64.7313C58.6305 67.3266 54.7483 70.6781 52.5092 74.6511C52.4477 74.7669 52.4333 74.9019 52.4689 75.028C52.5045 75.1541 52.5874 75.2616 52.7003 75.3281C52.8132 75.3947 52.9475 75.4151 53.075 75.3851C53.2026 75.3551 53.3137 75.2771 53.3852 75.1673Z" fill="black"/>
</g>
<path id="Vector_100" d="M92.7628 68.376H99.3966C99.5237 68.3652 99.6421 68.3071 99.7284 68.2132C99.8147 68.1193 99.8625 67.9964 99.8625 67.8689C99.8625 67.7414 99.8147 67.6185 99.7284 67.5246C99.6421 67.4307 99.5237 67.3726 99.3966 67.3618H92.7628C92.6357 67.3726 92.5173 67.4307 92.431 67.5246C92.3447 67.6185 92.2969 67.7414 92.2969 67.8689C92.2969 67.9964 92.3447 68.1193 92.431 68.2132C92.5173 68.3071 92.6357 68.3652 92.7628 68.376Z" fill="#FCAF17"/>
<path id="Vector_101" d="M92.6865 70.2629H96.5323C96.6673 70.2629 96.7967 70.2093 96.8922 70.1139C96.9876 70.0184 97.0412 69.889 97.0412 69.754C97.0412 69.6191 96.9876 69.4896 96.8922 69.3942C96.7967 69.2987 96.6673 69.2451 96.5323 69.2451H92.6865C92.5515 69.2451 92.4221 69.2987 92.3267 69.3942C92.2312 69.4896 92.1776 69.6191 92.1776 69.754C92.1776 69.889 92.2312 70.0184 92.3267 70.1139C92.4221 70.2093 92.5515 70.2629 92.6865 70.2629Z" fill="#FCAF17"/>
<g id="Group_9" opacity="0.1">
<path id="Vector_102" d="M92.7626 68.376H99.3964C99.5235 68.3652 99.6419 68.3071 99.7282 68.2132C99.8144 68.1193 99.8623 67.9964 99.8623 67.8689C99.8623 67.7414 99.8144 67.6185 99.7282 67.5246C99.6419 67.4307 99.5235 67.3726 99.3964 67.3618H92.7626C92.6355 67.3726 92.5171 67.4307 92.4308 67.5246C92.3445 67.6185 92.2966 67.7414 92.2966 67.8689C92.2966 67.9964 92.3445 68.1193 92.4308 68.2132C92.5171 68.3071 92.6355 68.3652 92.7626 68.376Z" fill="#FAFAFA"/>
<path id="Vector_103" d="M92.6863 70.2629H96.5321C96.6671 70.2629 96.7965 70.2093 96.8919 70.1139C96.9874 70.0184 97.041 69.889 97.041 69.754C97.041 69.6191 96.9874 69.4896 96.8919 69.3942C96.7965 69.2987 96.6671 69.2451 96.5321 69.2451H92.6863C92.5513 69.2451 92.4219 69.2987 92.3264 69.3942C92.231 69.4896 92.1774 69.6191 92.1774 69.754C92.1774 69.889 92.231 70.0184 92.3264 70.1139C92.4219 70.2093 92.5513 70.2629 92.6863 70.2629Z" fill="#FAFAFA"/>
</g>
<path id="Vector_104" d="M53.0287 94.4172H58.7175C58.8524 94.4172 58.9819 94.3636 59.0773 94.2682C59.1727 94.1727 59.2264 94.0433 59.2264 93.9083C59.2264 93.7733 59.1727 93.6439 59.0773 93.5485C58.9819 93.453 58.8524 93.3994 58.7175 93.3994H53.0287C52.8937 93.3994 52.7643 93.453 52.6689 93.5485C52.5734 93.6439 52.5198 93.7733 52.5198 93.9083C52.5198 94.0433 52.5734 94.1727 52.6689 94.2682C52.7643 94.3636 52.8937 94.4172 53.0287 94.4172Z" fill="#FCAF17"/>
<path id="Vector_105" d="M52.8253 96.6021H60.2043C60.3393 96.6021 60.4687 96.5485 60.5641 96.4531C60.6596 96.3577 60.7132 96.2282 60.7132 96.0932C60.7132 95.9583 60.6596 95.8288 60.5641 95.7334C60.4687 95.638 60.3393 95.5844 60.2043 95.5844H52.8253C52.6903 95.5844 52.5609 95.638 52.4655 95.7334C52.37 95.8288 52.3164 95.9583 52.3164 96.0932C52.3164 96.2282 52.37 96.3577 52.4655 96.4531C52.5609 96.5485 52.6903 96.6021 52.8253 96.6021Z" fill="#FCAF17"/>
<path id="Vector_106" d="M52.8253 98.851H56.5148C56.6498 98.851 56.7792 98.7974 56.8746 98.702C56.9701 98.6065 57.0237 98.4771 57.0237 98.3421C57.0237 98.2072 56.9701 98.0777 56.8746 97.9823C56.7792 97.8869 56.6498 97.8333 56.5148 97.8333H52.8253C52.6903 97.8333 52.5609 97.8869 52.4655 97.9823C52.37 98.0777 52.3164 98.2072 52.3164 98.3421C52.3164 98.4771 52.37 98.6065 52.4655 98.702C52.5609 98.7974 52.6903 98.851 52.8253 98.851Z" fill="#FCAF17"/>
<g id="Group_10" opacity="0.1">
<path id="Vector_107" d="M53.0286 94.4176H58.7174C58.8523 94.4176 58.9818 94.364 59.0772 94.2685C59.1726 94.1731 59.2263 94.0436 59.2263 93.9087C59.2263 93.7737 59.1726 93.6443 59.0772 93.5488C58.9818 93.4534 58.8523 93.3998 58.7174 93.3998H53.0286C52.8937 93.3998 52.7642 93.4534 52.6688 93.5488C52.5733 93.6443 52.5197 93.7737 52.5197 93.9087C52.5197 94.0436 52.5733 94.1731 52.6688 94.2685C52.7642 94.364 52.8937 94.4176 53.0286 94.4176Z" fill="#FAFAFA"/>
<path id="Vector_108" d="M52.8252 96.6025H60.2042C60.3392 96.6025 60.4686 96.5489 60.5641 96.4535C60.6595 96.358 60.7131 96.2286 60.7131 96.0936C60.7131 95.9586 60.6595 95.8292 60.5641 95.7338C60.4686 95.6383 60.3392 95.5847 60.2042 95.5847H52.8252C52.6902 95.5847 52.5608 95.6383 52.4654 95.7338C52.3699 95.8292 52.3163 95.9586 52.3163 96.0936C52.3163 96.2286 52.3699 96.358 52.4654 96.4535C52.5608 96.5489 52.6902 96.6025 52.8252 96.6025Z" fill="#FAFAFA"/>
<path id="Vector_109" d="M52.8252 98.8523H56.5147C56.6497 98.8523 56.7791 98.7986 56.8746 98.7032C56.97 98.6078 57.0236 98.4783 57.0236 98.3434C57.0236 98.2084 56.97 98.079 56.8746 97.9835C56.7791 97.8881 56.6497 97.8345 56.5147 97.8345H52.8252C52.6902 97.8345 52.5608 97.8881 52.4654 97.9835C52.3699 98.079 52.3163 98.2084 52.3163 98.3434C52.3163 98.4783 52.3699 98.6078 52.4654 98.7032C52.5608 98.7986 52.6902 98.8523 52.8252 98.8523Z" fill="#FAFAFA"/>
</g>
</g>
<g id="Character">
<path id="Vector_110" d="M12.9097 37.3444L14.629 37.2681L13.8511 40.5395C13.2375 40.1195 12.6783 39.625 12.1863 39.0674C12.0444 38.9005 11.974 38.6845 11.9903 38.4661C12.0067 38.2476 12.1084 38.0445 12.2735 37.9006L12.9097 37.3444Z" fill="#E4897B"/>
<path id="Vector_111" d="M16.6246 39.031L15.854 41.6918L13.8512 40.5323L14.629 37.2681L16.6246 39.031Z" fill="#E4897B"/>
<path id="Vector_112" d="M16.2856 23.2348L12.7675 23.5605L20.8365 110.707L24.3546 110.381L16.2856 23.2348Z" fill="#FCAF17"/>
<path id="Vector_113" opacity="0.3" d="M16.2856 23.2348L12.7675 23.5605L20.8365 110.707L24.3546 110.381L16.2856 23.2348Z" fill="black"/>
<path id="Vector_114" d="M23.3235 22.5807L19.8053 22.9065L27.8743 110.053L31.3925 109.727L23.3235 22.5807Z" fill="#FCAF17"/>
<path id="Vector_115" opacity="0.3" d="M23.3235 22.5807L19.8053 22.9065L27.8743 110.053L31.3925 109.727L23.3235 22.5807Z" fill="black"/>
<path id="Vector_116" d="M19.8063 22.9078L16.2881 23.2335L24.3571 110.38L27.8753 110.054L19.8063 22.9078Z" fill="#FCAF17"/>
<path id="Vector_117" opacity="0.1" d="M19.8063 22.9078L16.2881 23.2335L24.3571 110.38L27.8753 110.054L19.8063 22.9078Z" fill="black"/>
<path id="Vector_118" d="M19.0637 16.8138L15.8976 17.1083L12.7679 23.5604L23.3239 22.5826L19.0637 16.8138Z" fill="#FCAF17"/>
<g id="Group_11" opacity="0.8">
<path id="Vector_119" d="M19.0637 16.8138L15.8976 17.1083L12.7679 23.5604L23.3239 22.5826L19.0637 16.8138Z" fill="#FAFAFA"/>
</g>
<path id="Vector_120" d="M17.2388 14.3422L15.8975 17.1084L19.0636 16.8139L17.2388 14.3422Z" fill="#263238"/>
<path id="Vector_121" d="M43.8395 19.2671C44.203 19.6306 44.5047 19.9759 44.8173 20.3576C45.1299 20.7393 45.428 21.0846 45.726 21.4481C46.3258 22.1751 46.8856 22.9421 47.4309 23.7236C48.5549 25.3126 49.5031 27.0189 50.2589 28.8125C50.3497 29.0452 50.4333 29.2887 50.5206 29.5395L50.6514 29.903C50.7235 30.1206 50.7746 30.3446 50.8041 30.5719C50.883 31.2953 50.787 32.027 50.5242 32.7056C50.1319 33.7073 49.5822 34.6399 48.8958 35.4682C47.6821 36.9535 46.2848 38.2788 44.7373 39.4121L43.3669 37.9581C44.4455 36.6099 45.4316 35.1902 46.3186 33.7089C46.7071 33.076 47.0056 32.3921 47.2055 31.6769C47.2607 31.5014 47.267 31.3141 47.2237 31.1353L47.1001 30.8663C47.0165 30.6882 46.9438 30.5028 46.8529 30.3283C46.0835 28.8353 45.1833 27.4133 44.163 26.079C43.6541 25.3848 43.1161 24.7087 42.5709 24.0325C42.2983 23.6981 42.022 23.3637 41.7385 23.0366L40.9097 22.0806L43.8395 19.2671Z" fill="#E4897B"/>
<path id="Vector_122" d="M41.1679 39.0671L42.7164 42.1314L44.2322 40.8264L42.989 38.649L41.1679 39.0671Z" fill="#E4897B"/>
<path id="Vector_123" d="M29.5033 21.0636C28.5606 22.8593 27.5816 24.6344 26.5662 26.3889C26.0682 27.2722 25.5448 28.1409 25.0359 29.0169L24.2544 30.3255L24.0581 30.6527C23.9599 30.809 23.8509 30.9944 23.7527 31.118C23.6546 31.2415 23.5565 31.3906 23.462 31.5033C23.3674 31.616 23.2657 31.7432 23.1712 31.8486C22.4369 32.6485 21.6551 33.4035 20.8302 34.1095C20.0342 34.7893 19.2381 35.4509 18.4166 36.0797C16.7918 37.3483 15.1233 38.5297 13.3931 39.6565L12.1463 38.0862L16.4537 33.8442C17.1589 33.1172 17.8714 32.4338 18.5438 31.7141C19.2046 31.0368 19.8271 30.3232 20.4086 29.5767C20.4788 29.4895 20.5406 29.4059 20.594 29.3259C20.6558 29.2387 20.6994 29.166 20.743 29.0933C20.7806 29.0348 20.8146 28.9741 20.8448 28.9115L21.012 28.5735L21.6844 27.2031C22.1461 26.298 22.5968 25.3856 23.0657 24.4878C23.9939 22.6775 24.9632 20.8879 25.9737 19.1189L29.5033 21.0636Z" fill="#E4897B"/>
<path id="Vector_124" d="M39.7064 8.78456C39.6591 8.99539 39.7354 9.19531 39.8699 9.23166C40.0044 9.26801 40.1535 9.12262 40.2007 8.91179C40.248 8.70096 40.168 8.50103 40.0335 8.46468C39.899 8.42833 39.7391 8.57373 39.7064 8.78456Z" fill="#263238"/>
<path id="Vector_125" d="M39.7137 9.19116C39.8276 9.90016 40.0354 10.5908 40.3317 11.2449C40.1644 11.3111 39.9846 11.3399 39.805 11.3293C39.6254 11.3186 39.4503 11.2687 39.2921 11.1831L39.7137 9.19116Z" fill="#DE5753"/>
<path id="Vector_126" d="M40.2631 7.50457C40.2372 7.50464 40.2119 7.49705 40.1904 7.48276C40.0561 7.4007 39.9039 7.35254 39.7468 7.3424C39.5898 7.33227 39.4326 7.36048 39.2889 7.4246C39.2575 7.43683 39.2226 7.43648 39.1914 7.42362C39.1603 7.41075 39.1353 7.38636 39.1217 7.35553C39.1095 7.32413 39.1098 7.28922 39.1227 7.25807C39.1355 7.22693 39.1599 7.20194 39.1908 7.18833C39.3745 7.10943 39.5746 7.07616 39.774 7.09135C39.9734 7.10654 40.1661 7.16975 40.3358 7.27557C40.3496 7.2847 40.3614 7.29652 40.3706 7.31031C40.3797 7.32411 40.386 7.3396 40.3891 7.35588C40.3921 7.37215 40.3919 7.38888 40.3883 7.40505C40.3848 7.42123 40.378 7.43653 40.3685 7.45005C40.3567 7.46702 40.3409 7.48085 40.3225 7.49035C40.3042 7.49985 40.2837 7.50473 40.2631 7.50457Z" fill="#263238"/>
<path id="Vector_127" d="M32.3529 9.5874C32.8109 11.543 33.3307 15.1198 32.0148 16.4248C32.0148 16.4248 32.6255 18.4059 36.2569 18.4059C40.2553 18.4059 38.0743 16.4248 38.0743 16.4248C35.8752 15.905 35.8679 14.2874 36.1878 12.7716L32.3529 9.5874Z" fill="#E4897B"/>
<path id="Vector_128" d="M31.5206 17.1045C31.2079 16.4793 30.8663 15.7596 31.5206 15.5342C32.2257 15.2871 36.1406 15.0362 37.511 15.4979C37.8761 15.5956 38.1889 15.8316 38.3829 16.1559C38.577 16.4803 38.6371 16.8675 38.5506 17.2354L31.5206 17.1045Z" fill="#FCAF17"/>
<path id="Vector_129" opacity="0.6" d="M31.5206 17.1045C31.2079 16.4793 30.8663 15.7596 31.5206 15.5342C32.2257 15.2871 36.1406 15.0362 37.511 15.4979C37.8761 15.5956 38.1889 15.8316 38.3829 16.1559C38.577 16.4803 38.6371 16.8675 38.5506 17.2354L31.5206 17.1045Z" fill="#FAFAFA"/>
<path id="Vector_130" d="M26.2898 108.302C26.0551 108.301 25.8212 108.275 25.5919 108.226C25.5801 108.224 25.5692 108.218 25.5608 108.21C25.5523 108.201 25.5467 108.19 25.5446 108.179C25.5422 108.166 25.5433 108.154 25.5478 108.142C25.5523 108.131 25.56 108.121 25.5701 108.113C25.5991 108.091 26.2971 107.59 26.7042 107.677C26.7482 107.685 26.7899 107.702 26.8263 107.728C26.8628 107.754 26.8931 107.787 26.915 107.826C26.9477 107.87 26.9654 107.923 26.9654 107.977C26.9654 108.031 26.9477 108.084 26.915 108.128C26.8278 108.27 26.5624 108.302 26.2898 108.302ZM25.77 108.135C26.1698 108.2 26.7151 108.2 26.8241 108.051C26.8241 108.051 26.8677 107.993 26.806 107.888C26.7926 107.865 26.7743 107.845 26.7523 107.83C26.7302 107.815 26.7051 107.805 26.6787 107.801C26.3486 107.822 26.0323 107.941 25.77 108.142V108.135Z" fill="#FAFAFA"/>
<path id="Vector_131" d="M25.6066 108.238H25.5739C25.5644 108.232 25.5567 108.224 25.5515 108.215C25.5464 108.205 25.5441 108.194 25.5448 108.183C25.5448 108.151 25.5775 107.38 25.8792 107.125C25.9154 107.093 25.9582 107.069 26.0046 107.054C26.051 107.04 26.1 107.036 26.1482 107.042C26.1972 107.042 26.2447 107.059 26.2826 107.09C26.3204 107.121 26.3461 107.165 26.3554 107.213C26.4136 107.511 25.9047 108.092 25.6284 108.241L25.6066 108.238ZM26.1046 107.147C26.0524 107.148 26.002 107.167 25.9628 107.202C25.7845 107.446 25.6856 107.739 25.6793 108.041C25.941 107.834 26.2646 107.394 26.2318 107.22C26.2318 107.202 26.2318 107.158 26.1337 107.147H26.1046Z" fill="#FAFAFA"/>
<path id="Vector_132" d="M42.3274 108.302C42.0518 108.302 41.7768 108.277 41.5059 108.226C41.4932 108.224 41.4814 108.218 41.4723 108.209C41.4632 108.2 41.4571 108.188 41.455 108.175C41.453 108.163 41.4547 108.15 41.4598 108.138C41.465 108.127 41.4734 108.117 41.4841 108.11C41.6186 108.033 42.8036 107.354 43.0908 107.823C43.1195 107.864 43.135 107.913 43.135 107.963C43.135 108.013 43.1195 108.062 43.0908 108.103C43.0108 108.262 42.6691 108.302 42.3274 108.302ZM41.7058 108.132C42.2075 108.204 42.8836 108.193 42.9999 108.03C42.9999 108.03 43.0362 107.979 42.9817 107.888C42.8218 107.63 42.1021 107.939 41.7058 108.139V108.132Z" fill="#FAFAFA"/>
<path id="Vector_133" d="M41.5169 108.237C41.505 108.24 41.4925 108.24 41.4806 108.237C41.4715 108.231 41.4643 108.222 41.4598 108.211C41.4553 108.201 41.4537 108.19 41.4551 108.179C41.4551 108.15 41.4987 107.43 41.8186 107.15C41.8671 107.106 41.9249 107.073 41.9879 107.054C42.0508 107.035 42.1172 107.031 42.1821 107.041C42.3602 107.059 42.4111 107.15 42.422 107.223C42.4729 107.532 41.8659 108.095 41.546 108.241L41.5169 108.237ZM42.1276 107.147C42.0469 107.146 41.9689 107.175 41.9095 107.23C41.7184 107.464 41.6076 107.753 41.5932 108.055C41.9131 107.859 42.3202 107.412 42.2948 107.227C42.2948 107.208 42.2948 107.161 42.1639 107.147H42.1276Z" fill="#FAFAFA"/>
<path id="Vector_134" d="M38.5797 108.172H41.2514L41.2768 101.989H38.6088L38.5797 108.172Z" fill="#E4897B"/>
<path id="Vector_135" d="M22.5461 108.172H25.2178L26.3229 101.989H23.6512L22.5461 108.172Z" fill="#E4897B"/>
<path id="Vector_136" d="M25.3957 107.862H22.3968C22.3438 107.862 22.2923 107.88 22.2516 107.914C22.2109 107.948 22.1838 107.996 22.1751 108.048L21.7389 110.421C21.7299 110.48 21.7339 110.54 21.7505 110.598C21.7671 110.655 21.7959 110.708 21.835 110.753C21.874 110.798 21.9224 110.834 21.9768 110.858C22.0311 110.882 22.0901 110.895 22.1497 110.894C23.1965 110.876 23.7018 110.814 25.0213 110.814C25.8319 110.814 27.5076 110.901 28.6308 110.901C29.754 110.901 29.8522 109.811 29.3905 109.691C27.315 109.24 26.5153 108.619 25.8355 108.03C25.7142 107.922 25.5578 107.863 25.3957 107.862Z" fill="#263238"/>
<path id="Vector_137" d="M41.2226 107.862H38.3146C38.2616 107.862 38.2101 107.88 38.1694 107.914C38.1287 107.948 38.1016 107.996 38.0929 108.048L37.6567 110.421C37.6465 110.48 37.6494 110.54 37.6651 110.597C37.6807 110.654 37.7088 110.707 37.7474 110.753C37.7859 110.798 37.8339 110.834 37.888 110.858C37.9421 110.883 38.0008 110.895 38.0602 110.894C39.1107 110.876 40.6265 110.814 41.9496 110.814C43.4981 110.814 44.8358 110.901 46.6496 110.901C47.7401 110.901 48.0055 109.811 47.5438 109.691C45.4355 109.233 43.7271 109.186 41.8805 108.073C41.6852 107.943 41.4573 107.87 41.2226 107.862Z" fill="#263238"/>
<path id="Vector_138" d="M26.9223 17.0284C24.4396 17.6028 21.8333 24.4256 21.8333 24.4256L26.9913 27.8716C28.1756 26.076 29.2137 24.1882 30.0956 22.2265C31.4587 19.104 29.4559 16.4432 26.9223 17.0284Z" fill="#FCAF17"/>
<path id="Vector_139" opacity="0.7" d="M26.9223 17.0284C24.4396 17.6028 21.8333 24.4256 21.8333 24.4256L26.9913 27.8716C28.1756 26.076 29.2137 24.1882 30.0956 22.2265C31.4587 19.104 29.4559 16.4432 26.9223 17.0284Z" fill="black"/>
<path id="Vector_140" d="M28.8818 21.3792L26.7481 27.7076L26.9916 27.8712C26.9916 27.8712 27.9658 26.4172 29.0017 24.4798L28.8818 21.3792Z" fill="#FCAF17"/>
<path id="Vector_141" opacity="0.8" d="M28.8818 21.3792L26.7481 27.7076L26.9916 27.8712C26.9916 27.8712 27.9658 26.4172 29.0017 24.4798L28.8818 21.3792Z" fill="black"/>
<path id="Vector_142" d="M43.5816 28.9585C43.5598 31.9391 43.3817 35.6468 42.9382 40.2487H28.6528C28.4674 38.0677 29.4343 27.3591 26.9225 17.0285C28.4938 16.7239 30.0832 16.5223 31.6807 16.4251C33.7025 16.3087 35.7293 16.3087 37.7511 16.4251C39.1454 16.5606 40.5272 16.8037 41.8841 17.1521C41.8841 17.1521 43.1054 18.4752 43.4762 24.6801C43.5489 25.9196 43.5889 27.33 43.5816 28.9585Z" fill="#FCAF17"/>
<path id="Vector_143" opacity="0.7" d="M43.5816 28.9585C43.5598 31.9391 43.3817 35.6468 42.9382 40.2487H28.6528C28.4674 38.0677 29.4343 27.3591 26.9225 17.0285C28.4938 16.7239 30.0832 16.5223 31.6807 16.4251C33.7025 16.3087 35.7293 16.3087 37.7511 16.4251C39.1454 16.5606 40.5272 16.8037 41.8841 17.1521C41.8841 17.1521 43.1054 18.4752 43.4762 24.6801C43.5489 25.9196 43.5889 27.33 43.5816 28.9585Z" fill="black"/>
<path id="Vector_144" d="M43.5813 28.9585C42.7161 27.3809 41.1458 24.2148 41.3675 22.4155L43.4758 24.6983C43.5485 25.9196 43.5885 27.33 43.5813 28.9585Z" fill="#FCAF17"/>
<path id="Vector_145" opacity="0.8" d="M43.5813 28.9585C42.7161 27.3809 41.1458 24.2148 41.3675 22.4155L43.4758 24.6983C43.5485 25.9196 43.5885 27.33 43.5813 28.9585Z" fill="black"/>
<path id="Vector_146" d="M39.085 19.58C38.8596 22.1245 44.6283 28.2458 44.6283 28.2458L49.252 24.48C48.041 22.4364 46.5901 20.5449 44.93 18.8457C42.2256 16.2322 39.3394 16.7302 39.085 19.58Z" fill="#FCAF17"/>
<path id="Vector_147" opacity="0.7" d="M39.085 19.58C38.8596 22.1245 44.6283 28.2458 44.6283 28.2458L49.252 24.48C48.041 22.4364 46.5901 20.5449 44.93 18.8457C42.2256 16.2322 39.3394 16.7302 39.085 19.58Z" fill="black"/>
<path id="Vector_148" d="M41.2768 101.992L41.2622 105.177H38.5941L38.605 101.992H41.2768Z" fill="#CE6F64"/>
<path id="Vector_149" d="M23.6508 101.992H26.3225L25.7518 105.177H23.0801L23.6508 101.992Z" fill="#CE6F64"/>
<path id="Vector_150" d="M32.8329 6.57757C32.444 9.20929 32.0841 10.7214 33.0946 12.3935C33.4158 12.935 33.8791 13.3783 34.4343 13.6753C34.9895 13.9723 35.6153 14.1116 36.2441 14.0783C36.8728 14.045 37.4804 13.8402 38.0011 13.4862C38.5217 13.1322 38.9356 12.6424 39.1977 12.07C40.241 9.88903 40.7063 5.94872 38.4126 4.2839C37.9286 3.91019 37.3547 3.67051 36.7487 3.58897C36.1427 3.50742 35.5259 3.58689 34.9604 3.81937C34.3948 4.05186 33.9004 4.42917 33.527 4.91335C33.1535 5.39753 32.9141 5.97151 32.8329 6.57757Z" fill="#E4897B"/>
<path id="Vector_151" d="M40.7387 5.33097C39.952 5.76061 39.0865 6.02646 38.1942 6.11248C37.529 9.15496 35.7588 12.6554 32.8944 11.6486C31.8039 11.2851 30.7135 8.64243 30.6008 6.29787C30.4118 6.52688 30.2845 6.82494 30.1864 6.94853C30.0229 5.90657 30.1409 4.83986 30.5281 3.8588C31.3205 1.61238 31.8476 3.10272 32.7091 1.73961C33.2652 0.838133 34.2539 0.372857 35.9805 0.314697C35.4971 0.565511 35.4062 0.968993 36.1223 0.910833C36.8384 0.852674 39.8954 0.685466 41.6765 1.88864C40.4734 2.16127 41.2076 4.06963 42.8143 3.05183C42.2291 4.00056 41.5021 4.90204 40.7387 5.33097Z" fill="#263238"/>
<path id="Vector_152" d="M36.137 8.20677C36.1472 8.876 36.3714 9.52439 36.7768 10.057C37.3184 10.7549 37.94 10.4205 38.089 9.63531C38.2198 8.9374 38.089 7.73058 37.4129 7.30893C36.7368 6.88727 36.1334 7.40707 36.137 8.20677Z" fill="#E4897B"/>
<path id="Vector_153" d="M32.8802 2.02335C32.5174 2.00035 32.1658 1.88895 31.856 1.69888C31.5462 1.5088 31.2875 1.24582 31.1027 0.932861C31.1027 0.932861 31.0554 3.06296 32.8802 2.02335Z" fill="#1E2A4C"/>
<path id="Vector_154" d="M37.8673 40.2478C37.8673 40.2478 35.6281 60.6546 34.2577 68.2989C32.7601 76.6594 26.9878 104.561 26.9878 104.561H22.0806C22.0806 104.561 25.5629 77.3464 26.2899 69.0441C27.0714 60.0475 28.6671 40.2333 28.6671 40.2333L37.8673 40.2478Z" fill="#FCAF17"/>
<path id="Vector_155" opacity="0.6" d="M37.8673 40.2478C37.8673 40.2478 35.6281 60.6546 34.2577 68.2989C32.7601 76.6594 26.9878 104.561 26.9878 104.561H22.0806C22.0806 104.561 25.5629 77.3464 26.2899 69.0441C27.0714 60.0475 28.6671 40.2333 28.6671 40.2333L37.8673 40.2478Z" fill="#FAFAFA"/>
<path id="Vector_156" d="M27.6823 102.759C27.7041 102.759 27.2497 104.638 27.2497 104.638H21.75L21.7864 102.962L27.6823 102.759Z" fill="#FCAF17"/>
<path id="Vector_157" opacity="0.1" d="M27.6823 102.759C27.7041 102.759 27.2497 104.638 27.2497 104.638H21.75L21.7864 102.962L27.6823 102.759Z" fill="#FAFAFA"/>
<path id="Vector_158" d="M36.2354 47.5186C32.7568 48.2056 33.6328 61.2734 34.3125 67.9944C35.1413 63.2435 36.2681 54.1016 37.0279 47.6131C36.7819 47.4932 36.5027 47.4599 36.2354 47.5186Z" fill="#FCAF17"/>
<path id="Vector_159" opacity="0.4" d="M36.2354 47.5186C32.7568 48.2056 33.6328 61.2734 34.3125 67.9944C35.1413 63.2435 36.2681 54.1016 37.0279 47.6131C36.7819 47.4932 36.5027 47.4599 36.2354 47.5186Z" fill="#FAFAFA"/>
<path id="Vector_160" d="M42.9344 40.2483C42.9344 40.2483 44.0758 60.2116 44.0976 68.3576C44.123 76.8271 42.2365 104.562 42.2365 104.562H37.7109C37.7109 104.562 36.4932 77.3214 35.9698 69.0046C35.4027 59.9353 33.5452 40.2483 33.5452 40.2483H42.9344Z" fill="#FCAF17"/>
<path id="Vector_161" opacity="0.6" d="M42.9344 40.2483C42.9344 40.2483 44.0758 60.2116 44.0976 68.3576C44.123 76.8271 42.2365 104.562 42.2365 104.562H37.7109C37.7109 104.562 36.4932 77.3214 35.9698 69.0046C35.4027 59.9353 33.5452 40.2483 33.5452 40.2483H42.9344Z" fill="#FAFAFA"/>
<path id="Vector_162" d="M44.0287 37.6827L42.7601 37.7845C42.6568 37.7932 42.5566 37.8248 42.467 37.877C42.3774 37.9292 42.3006 38.0008 42.2421 38.0864C42.1836 38.172 42.145 38.2696 42.1289 38.3721C42.1129 38.4746 42.1199 38.5793 42.1494 38.6787L42.6729 40.4417C42.717 40.5849 42.7952 40.7154 42.9006 40.8219C43.0061 40.9285 43.1357 41.008 43.2785 41.0537C43.4212 41.0994 43.5729 41.1099 43.7206 41.0843C43.8684 41.0588 44.0077 40.9979 44.1269 40.907C44.7822 40.297 45.2521 39.5146 45.4827 38.6496L44.0287 37.6827Z" fill="#E4897B"/>
<path id="Vector_163" d="M41.1642 101.312C41.152 101.311 41.1408 101.305 41.1328 101.295C41.1248 101.286 41.1204 101.274 41.1206 101.262C41.6222 93.5881 42.7854 75.017 42.7636 68.3577C42.7636 61.5421 41.9348 46.297 41.6731 41.786C41.6726 41.78 41.6733 41.7739 41.6753 41.7682C41.6773 41.7625 41.6804 41.7572 41.6845 41.7528C41.6886 41.7484 41.6936 41.7448 41.6991 41.7424C41.7047 41.74 41.7107 41.7387 41.7167 41.7388C41.7286 41.7387 41.7401 41.7432 41.7489 41.7513C41.7577 41.7594 41.763 41.7705 41.764 41.7824C42.0111 46.2934 42.8217 61.5385 42.8545 68.3577C42.8763 75.0206 41.7131 93.5917 41.2114 101.269C41.2115 101.275 41.2102 101.281 41.2078 101.286C41.2054 101.292 41.2019 101.297 41.1974 101.301C41.193 101.305 41.1877 101.308 41.182 101.31C41.1763 101.312 41.1702 101.313 41.1642 101.312Z" fill="#FCAF17"/>
<path id="Vector_164" opacity="0.3" d="M41.1642 101.312C41.152 101.311 41.1408 101.305 41.1328 101.295C41.1248 101.286 41.1204 101.274 41.1206 101.262C41.6222 93.5881 42.7854 75.017 42.7636 68.3577C42.7636 61.5421 41.9348 46.297 41.6731 41.786C41.6726 41.78 41.6733 41.7739 41.6753 41.7682C41.6773 41.7625 41.6804 41.7572 41.6845 41.7528C41.6886 41.7484 41.6936 41.7448 41.6991 41.7424C41.7047 41.74 41.7107 41.7387 41.7167 41.7388C41.7286 41.7387 41.7401 41.7432 41.7489 41.7513C41.7577 41.7594 41.763 41.7705 41.764 41.7824C42.0111 46.2934 42.8217 61.5385 42.8545 68.3577C42.8763 75.0206 41.7131 93.5917 41.2114 101.269C41.2115 101.275 41.2102 101.281 41.2078 101.286C41.2054 101.292 41.2019 101.297 41.1974 101.301C41.193 101.305 41.1877 101.308 41.182 101.31C41.1763 101.312 41.1702 101.313 41.1642 101.312Z" fill="#FAFAFA"/>
<path id="Vector_165" d="M43.0361 102.759C43.0579 102.759 42.8543 104.638 42.8543 104.638H37.351L37.1365 102.962L43.0361 102.759Z" fill="#FCAF17"/>
<path id="Vector_166" opacity="0.1" d="M43.0361 102.759C43.0579 102.759 42.8543 104.638 42.8543 104.638H37.351L37.1365 102.962L43.0361 102.759Z" fill="#FAFAFA"/>
</g>
</g>
</svg>
