<svg width="122" height="120" viewBox="0 0 122 120" fill="none" xmlns="http://www.w3.org/2000/svg">
<g id="discover 1" clip-path="url(#clip0_1_1197)">
<g id="d">
<path id="Vector" d="M61.0076 120C94.4166 120 121.5 93.1371 121.5 60C121.5 26.8629 94.4166 0 61.0076 0C27.5986 0 0.515228 26.8629 0.515228 60C0.515228 93.1371 27.5986 120 61.0076 120Z" fill="#FCAF17" fill-opacity="0.14"/>
<g id="Group">
<path id="Vector_2" d="M83.1531 14.2224H39.7176V95.4991H83.1531V14.2224Z" fill="white"/>
<g id="Group_2">
<path id="Vector_3" d="M112.249 73.295V69.6386L111.529 68.9245V66.0393L109.844 64.3678V67.4104L108.828 68.4176L107.208 66.8104L108.677 65.3534L106.085 62.7822L100.469 68.3527H98.7404L96.2552 70.8176C96.2162 73.737 96.1759 78.2085 96.2922 78.2085H100.613V76.7232H103.838V78.8944H105.394V81.2367L107.439 83.2649L113.257 77.4944V73.295H112.248H112.249Z" fill="#FFD88B"/>
<path id="Vector_4" d="M18.3403 58.8872C18.3403 58.3731 17.9946 51.3455 18.3403 51.3455C18.6861 51.3455 14.0199 51.3455 14.0199 51.3455V47.4033H19.8953L22.0551 49.5455V45.3462L26.5051 40.9324H30.9551V37.8046H36.8305V28.5488L34.584 26.3206L29.9178 30.9488L27.8439 28.8918L32.5101 24.2636L33.6333 25.3777L36.2256 22.8065L39.5087 26.0636L41.3235 24.2636V20.3213H32.8558L34.9298 18.2642H22.8326L19.4193 14.8787H14.7101L4.45087 25.0557H8.66286L11.4819 22.2596L14.3657 25.12L11.3417 28.1193V33.1757L7.7882 36.7003V50.4878L18.3403 58.8865V58.8872Z" fill="#FFD88B"/>
<path id="Vector_5" d="M20.9557 58.8872H26.9177L35.2372 67.139H38.712V72.6911L36.1846 75.198V81.242C36.1846 81.242 34.1768 82.72 34.1768 83.2334V96.9869L36.4444 99.2361V101.487L26.3147 91.4393V83.4898L23.267 80.4669V76.1626L18.7423 71.6747V63.0787L20.9564 58.8885L20.9557 58.8872Z" fill="#FFD88B"/>
<path id="Vector_6" d="M46.2283 51.7376V62.4072C46.2283 62.4072 54.0044 61.379 54.0044 62.4072C54.0044 63.4353 58.6699 67.0347 58.6699 67.0347V77.4471C58.6699 77.9612 61.9438 80.6944 61.9438 80.6944V85.6747H66.3164L70.498 81.5272V74.4911L73.2773 71.7344V65.2353L77.4437 61.1029L75.4293 59.1049H72.408L69.8607 56.5783V49.038L73.7262 52.8721L71.3713 55.2078L73.51 57.3291L77.5277 53.3442V51.6091H81.2213L84.5911 54.9514V57.6511L87.3777 60.415L93.2749 54.5658L95.0248 56.3009V61.3783H98.2002L96.6452 59.836V57.6504L98.3701 59.3612L99.691 60.6714L103.061 57.3291L100.14 54.4321L105.194 49.419L100.533 44.796L108.28 37.1114L102.901 31.7763L108.1 26.6203V29.8839L112.675 34.4222V30.2694L110.013 27.6288L115.412 22.2747H112.456V19.9855H89.646L85.4988 15.8721L80.4445 20.8852L81.7403 22.1704L76.8804 26.9908L74.9361 25.0622L72.0847 27.8904L67.7431 23.5842L60.5501 30.7186L62.4945 32.6472V34.3829L63.8227 33.0655V30.398H66.3177V31.3475L62.2175 35.4144L60.5799 33.7901L55.8278 38.5035V39.9462L54.8414 40.9245H52.5301V42.1744L51.2918 43.4026L53.1423 45.238H55.2374V43.1167L56.9437 41.4242L58.4127 42.8813C58.4127 42.8813 59.169 41.274 59.6008 41.7029C60.0325 42.1311 61.4585 43.3311 61.4585 43.5455C61.4585 43.7599 61.6747 44.874 61.4585 44.874C61.2423 44.874 62.3226 44.017 62.3226 44.017V42.6026L60.9832 41.274L61.5233 40.7383L62.9923 42.1953V43.9737L64.1479 45.1199V44.1022L65.1575 43.1003L67.5772 40.7003V39.2596H69.1486V40.8878C69.1486 40.8878 70.1205 40.7809 70.2289 40.8878C70.3367 40.9947 71.3303 41.9803 71.3303 41.9803V43.0727H68.8895V42.2157H67.2043L65.6275 43.7796V44.7435L66.6966 45.8039H69.1486V47.7429H64.612L63.3374 46.4786L61.5015 48.2996L59.8811 46.6924V45.257H56.6627L55.1719 46.7357H51.9536L47.9327 50.7239V51.6852L46.2296 51.7344L46.2283 51.7376Z" fill="#FFD88B"/>
</g>
<path id="Vector_7" d="M81.5479 100.364H41.022C38.4423 100.364 36.3439 98.2827 36.3439 95.724V13.225C36.3439 10.6663 38.4423 8.58496 41.022 8.58496H81.5479C84.1276 8.58496 86.226 10.6663 86.226 13.225V95.724C86.226 98.2827 84.1276 100.364 81.5479 100.364ZM41.022 8.71611C38.5157 8.71611 36.4761 10.7391 36.4761 13.225V95.724C36.4761 98.2099 38.5157 100.233 41.022 100.233H81.5473C84.0536 100.233 86.0931 98.2099 86.0931 95.724V13.225C86.0931 10.7391 84.0536 8.71611 81.5473 8.71611H41.022Z" fill="#827A69"/>
<path id="Vector_8" d="M67.4198 11.7129H55.4503C55.4139 11.7129 55.3842 11.6834 55.3842 11.6474C55.3842 11.6113 55.4139 11.5818 55.4503 11.5818H67.4198C67.4562 11.5818 67.4859 11.6113 67.4859 11.6474C67.4859 11.6834 67.4562 11.7129 67.4198 11.7129Z" fill="#827A69"/>
</g>
<g id="Group_3">
<path id="Vector_9" d="M111.657 58.9175H69.1057V113.451H111.657V58.9175Z" fill="#F7F1EB"/>
<g id="Group_4">
<g id="Group_5">
<path id="Vector_10" d="M105.428 66.9556H75.3334V70.5969H105.428V66.9556Z" fill="white"/>
<g id="Group_6">
<path id="Vector_11" d="M105.428 71.7681H81.4494V73.5891H105.428V71.7681Z" fill="#FFD88B"/>
<path id="Vector_12" d="M80.1728 71.7681H75.3334V73.5891H80.1728V71.7681Z" fill="#FFD88B"/>
</g>
<g id="Group_7">
<path id="Vector_13" d="M105.428 74.7595H81.4494V76.5805H105.428V74.7595Z" fill="#FFD88B"/>
<path id="Vector_14" d="M80.1728 74.7595H75.3334V76.5805H80.1728V74.7595Z" fill="#FFD88B"/>
</g>
<g id="Group_8">
<path id="Vector_15" d="M105.428 77.751H81.4494V79.572H105.428V77.751Z" fill="#FFD88B"/>
<path id="Vector_16" d="M80.1728 77.751H75.3334V79.572H80.1728V77.751Z" fill="#FFD88B"/>
</g>
</g>
<g id="Group_9">
<path id="Vector_17" d="M105.428 83.3115H75.3334V105.413H105.428V83.3115Z" fill="#253D4E" fill-opacity="0.1"/>
<path id="Vector_18" d="M99.0696 90.4139C99.0524 90.4139 99.0352 90.4073 99.0226 90.3949L97.5252 88.9096L96.2763 90.1483C96.2512 90.1732 96.2076 90.1732 96.1831 90.1483L94.8939 88.8696L93.4124 90.3391C93.3932 90.3582 93.3648 90.3634 93.3403 90.3536C93.3158 90.3437 93.2993 90.3195 93.2993 90.2932V83.606C93.2993 83.57 93.3291 83.5405 93.3654 83.5405C93.4018 83.5405 93.4315 83.57 93.4315 83.606V90.1352L94.847 88.7313C94.8721 88.7064 94.9157 88.7064 94.9402 88.7313L96.2294 90.01L97.4782 88.7713C97.5034 88.7464 97.547 88.7464 97.5715 88.7713L99.0028 90.1909V83.6054C99.0028 83.5693 99.0325 83.5398 99.0689 83.5398C99.1053 83.5398 99.135 83.5693 99.135 83.6054V90.3496C99.135 90.3759 99.1191 90.4001 99.094 90.41C99.0861 90.4132 99.0775 90.4152 99.0689 90.4152L99.0696 90.4139Z" fill="#AF9982"/>
</g>
</g>
</g>
<g id="Group_10">
<g id="Group_11">
<path id="Vector_19" d="M44.9808 82.6859C44.9808 82.6859 48.6592 92.6709 56.2773 92.6709C61.7362 92.6709 64.5129 89.0355 65.096 83.8309C65.7293 78.1745 57.0416 69.0814 46.4491 60.5955C46.4491 60.5955 42.7502 74.4309 44.9801 82.6859H44.9808Z" fill="#FCAF17"/>
<g id="Group_12">
<path id="Vector_20" d="M19.3267 82.0958C19.3267 82.0958 14.0054 95.566 6.20018 90.4702C-7.74546 81.366 6.97237 67.7135 17.6184 62.3568C31.4728 55.385 41.496 59.1463 46.4504 60.5955L45.5632 89.6571C45.4799 92.3955 43.2176 94.5725 40.4547 94.5725H22.3216C18.8652 94.5725 16.4059 91.2407 17.4498 87.9732L19.3267 82.0958Z" fill="#FCAF17"/>
<path id="Vector_21" d="M17.1615 73.2906C17.1563 73.2906 17.1503 73.29 17.145 73.2886C17.1093 73.2795 17.0882 73.2441 17.0974 73.2086L18.0098 69.7234C18.019 69.6886 18.0547 69.667 18.0904 69.6762C18.1261 69.6854 18.1473 69.7208 18.138 69.7562L17.2257 73.2414C17.2177 73.2709 17.1913 73.2906 17.1615 73.2906Z" fill="#363E44"/>
<path id="Vector_22" d="M45.6492 86.8854H45.6472C45.6108 86.8841 45.5817 86.8539 45.5831 86.8178L45.7093 82.6841C45.7106 82.648 45.7424 82.6185 45.7774 82.6205C45.8138 82.6218 45.8429 82.6519 45.8416 82.688L45.7153 86.8218C45.714 86.8572 45.6849 86.8854 45.6492 86.8854Z" fill="#363E44"/>
</g>
<g id="Group_13">
<g id="Group_14">
<path id="Vector_23" d="M9.34382 76.7437C9.34382 76.7437 18.8653 72.7922 23.9645 70.8283C32.7997 67.425 37.887 68.3666 37.8929 69.6263C37.8995 70.9935 35.2491 70.2138 33.9857 70.6112C34.1907 70.7115 34.7308 71.1233 34.7579 71.7994C34.7976 72.7994 34.0604 73.1122 34.0049 73.1679C34.0769 73.1961 34.8458 73.5207 34.9787 74.1856C35.1281 74.9345 34.8187 75.5102 34.3599 75.8578C34.5371 75.9332 35.1632 76.2827 35.2729 76.9253C35.386 77.5863 35.0547 78.3646 34.4273 78.5725C33.277 78.9542 29.8365 80.0197 28.2221 80.7561C25.0441 82.2047 14.406 88.9673 9.29424 89.7647C5.46239 89.9161 3.68068 84.6106 5.27926 80.4269C6.28549 77.7942 9.34316 76.7437 9.34316 76.7437H9.34382Z" fill="#BE7D76"/>
<g id="Group_15">
<path id="Vector_24" d="M32.9768 78.3916C32.9451 78.3916 32.9167 78.3687 32.9114 78.3366L32.7342 77.2657C32.7282 77.2303 32.7527 77.1962 32.7884 77.1903C32.8241 77.1844 32.8585 77.2087 32.8644 77.2441L33.0416 78.3149C33.0476 78.3503 33.0231 78.3844 32.9874 78.3903C32.9841 78.3903 32.9801 78.391 32.9768 78.391V78.3916Z" fill="#363E44"/>
<path id="Vector_25" d="M32.5048 75.8171C32.4724 75.8171 32.444 75.7935 32.4393 75.76L32.2747 74.543C32.2701 74.5069 32.2952 74.4741 32.3316 74.4695C32.3679 74.4649 32.401 74.4899 32.4056 74.5259L32.5702 75.743C32.5749 75.779 32.5497 75.8118 32.5134 75.8164C32.5101 75.8164 32.5074 75.8164 32.5048 75.8164V75.8171Z" fill="#363E44"/>
<path id="Vector_26" d="M32.1822 73.0768C32.1504 73.0768 32.1227 73.0539 32.1167 73.0217C32.0837 72.8217 32.0546 72.6414 32.0262 72.4604C31.9977 72.2801 31.9686 72.0998 31.9356 71.8998C31.9296 71.8644 31.9541 71.8303 31.9898 71.8244C32.0262 71.8185 32.0599 71.8427 32.0658 71.8781C32.0989 72.0781 32.128 72.2591 32.1571 72.4395C32.1855 72.6198 32.2146 72.8001 32.2476 72.9995C32.2536 73.0349 32.2291 73.069 32.1934 73.0749C32.1895 73.0749 32.1861 73.0755 32.1828 73.0755L32.1822 73.0768Z" fill="#363E44"/>
<path id="Vector_27" d="M31.7141 70.8519C31.6844 70.8519 31.6572 70.8315 31.65 70.8014L31.4007 69.7548C31.3921 69.7194 31.4146 69.684 31.4497 69.6761C31.4854 69.6676 31.5211 69.6899 31.529 69.7247L31.7782 70.7712C31.7868 70.8066 31.7643 70.842 31.7293 70.8499C31.724 70.8512 31.7194 70.8519 31.7141 70.8519Z" fill="#363E44"/>
</g>
</g>
<path id="Vector_28" d="M9.97055 75.442C10.2416 75.3201 5.34867 85.3732 12.3982 88.8715C12.3982 88.8715 9.99303 90.5791 7.09733 89.7686C4.20162 88.9581 1.18229 79.3909 9.97055 75.442Z" fill="#FCAF17"/>
</g>
<g id="Group_16">
<g id="Group_17">
<path id="Vector_29" d="M47.0666 74.7306L51.4994 85.8362C52.6993 88.8421 56.159 90.2788 59.1598 89.0178C62.4171 87.6486 63.6924 83.7326 61.8578 80.7326L55.7021 70.665L47.0659 74.7306H47.0666Z" fill="#BE7D76"/>
<path id="Vector_30" d="M50.4594 85.4689C50.4594 85.4689 59.8506 89.0598 61.752 79.2158L63.3797 83.0591C63.3797 83.0591 64.6603 87.705 60.1243 89.7679C55.5884 91.8302 51.9377 88.8427 50.4594 85.4689Z" fill="#FCAF17"/>
</g>
<g id="Group_18">
<g id="Group_19">
<path id="Vector_31" d="M36.7862 79.2821C36.7789 79.2821 36.7716 79.2808 36.7637 79.2781C36.7293 79.2663 36.7115 79.2283 36.7234 79.1942L42.7772 62.3345C42.7865 62.3083 42.8096 62.2932 42.8401 62.2913L56.1127 62.4067C56.149 62.4067 56.1788 62.4368 56.1781 62.4729C56.1781 62.509 56.1484 62.5378 56.112 62.5378L42.8863 62.4231L36.8483 79.2388C36.8384 79.2657 36.8133 79.2827 36.7862 79.2827V79.2821Z" fill="#363E44"/>
<path id="Vector_32" d="M51.0564 80.3672H37.7838L43.8377 63.5076H57.1103L51.0564 80.3672Z" fill="#363E44"/>
</g>
<g id="Group_20">
<path id="Vector_33" d="M52.8071 74.418C53.9779 75.079 54.1194 75.8527 53.7485 76.4986C53.3776 77.1452 52.6345 77.4193 51.4637 76.7583C50.2929 76.0973 49.1379 74.7517 49.5088 74.1052C49.8797 73.4586 51.6356 73.7563 52.8064 74.4173L52.8071 74.418Z" fill="#BE7D76"/>
<path id="Vector_34" d="M53.8332 72.0375C55.1898 72.8034 55.3544 73.6998 54.924 74.4493C54.4943 75.1981 53.6328 75.5162 52.2762 74.7503C50.9196 73.9844 49.5809 72.4244 50.0106 71.6755C50.4403 70.9267 52.4759 71.2716 53.8325 72.0375H53.8332Z" fill="#BE7D76"/>
<path id="Vector_35" d="M54.9584 70.6691C56.1292 71.3301 56.8723 71.056 57.2432 70.4094C57.6141 69.7629 57.4726 68.9891 56.3018 68.3288C55.1309 67.6684 53.375 67.3701 53.0041 68.0166C52.6332 68.6632 53.7882 70.0088 54.959 70.6697L54.9584 70.6691Z" fill="#BE7D76"/>
<path id="Vector_36" d="M53.4193 72.7596C54.7759 73.5255 55.6374 73.2074 56.0671 72.4586C56.4968 71.7097 56.3329 70.8127 54.9762 70.0468C53.6196 69.2809 51.584 68.936 51.1543 69.6848C50.7246 70.4337 52.0627 71.9937 53.42 72.7596H53.4193Z" fill="#BE7D76"/>
<path id="Vector_37" d="M52.6736 77.2042C52.6253 77.2042 52.5764 77.2022 52.5261 77.1976C52.4898 77.1943 52.4627 77.1622 52.466 77.1261C52.4693 77.0901 52.5023 77.0638 52.538 77.0665C53.0411 77.1117 53.4398 76.9038 53.691 76.4658C53.9317 76.0461 53.9198 75.6173 53.6566 75.2245C53.6434 75.2048 53.6421 75.1792 53.6533 75.1576C53.6646 75.1366 53.6864 75.1228 53.7109 75.1222C54.2087 75.1117 54.6087 74.8671 54.8672 74.416C55.0966 74.0153 55.129 73.5983 54.959 73.2101C54.9511 73.191 54.9518 73.1694 54.9624 73.1517C54.9729 73.134 54.9908 73.1215 55.0113 73.1189C55.4344 73.0651 55.7795 72.8251 56.0096 72.4245C56.0274 72.393 56.0677 72.3819 56.0995 72.4002C56.1312 72.4186 56.1425 72.4579 56.1239 72.4894C55.8879 72.9006 55.5395 73.1569 55.1111 73.2363C55.2612 73.6415 55.2169 74.0697 54.9809 74.4809C54.7177 74.9399 54.3197 75.2028 53.8252 75.2468C54.0593 75.6566 54.0527 76.0979 53.8047 76.5294C53.5509 76.972 53.1615 77.2028 52.6722 77.2028L52.6736 77.2042Z" fill="#363E44"/>
</g>
</g>
</g>
</g>
<g id="Group_21">
<path id="Vector_38" d="M40.2101 48.4946C40.4275 44.9901 37.7394 41.9744 34.2062 41.7589C30.673 41.5433 27.6325 44.2095 27.4152 47.7139C27.1979 51.2184 29.8859 54.2341 33.4191 54.4496C36.9523 54.6652 39.9928 51.999 40.2101 48.4946Z" fill="#363E44"/>
<path id="Vector_39" d="M38.24 51.2727C37.4288 50.8281 36.0391 49.6413 35.5909 50.4458L30.3323 58.7862C29.8841 59.5908 32.5742 59.3108 33.3854 59.7554C34.1966 60.1999 35.2173 59.9081 35.6656 59.1035L38.8971 53.5344C39.3454 52.7298 39.0512 51.7173 38.24 51.2727Z" fill="#BE7D76"/>
<path id="Vector_40" d="M37.6331 59.4308C38.3597 62.0708 36.2679 66.0649 36.2679 66.0649C36.2679 66.0649 28.5645 62.3567 28.5645 59.4308C28.5645 58.6832 30.5948 58.0767 33.0985 58.0767C35.6021 58.0767 37.4341 58.7094 37.6324 59.4308H37.6331Z" fill="#BE7D76"/>
<g id="Group_22">
<path id="Vector_41" d="M42.4844 53.5673C41.7571 54.9175 37.4923 54.3371 37.4923 54.3371L33.7735 51.4604C32.8043 49.5325 33.5943 47.1909 35.538 46.2296C37.4817 45.2683 39.8425 46.0519 40.8117 47.9798C40.8117 47.9798 43.2255 52.1916 42.485 53.5666L42.4844 53.5673Z" fill="#BE7D76"/>
<path id="Vector_42" d="M40.8679 49.0977C40.8679 49.0977 42.3706 49.6354 42.4539 49.9318C42.5538 50.2859 41.5535 51.0269 41.5535 51.0269C41.5535 51.0269 40.895 49.0872 40.8679 49.0977Z" fill="#BE7D76"/>
<g id="Group_23">
<path id="Vector_43" d="M37.6172 50.5193C37.6172 50.5193 38.0483 49.9134 38.7583 49.5626C38.9097 49.4878 39.227 50.8282 39.0499 50.8314C38.2691 50.8446 37.6172 50.52 37.6172 50.52V50.5193Z" fill="white"/>
<g id="Clip path group">
<mask id="mask0_1_1197" style="mask-type:luminance" maskUnits="userSpaceOnUse" x="37" y="49" width="5" height="2">
<g id="e">
<path id="Vector_44" d="M37.6172 50.5193C37.6172 50.5193 38.2512 49.6288 39.2482 49.381C40.2452 49.1338 41.2276 49.6236 41.2276 49.6236C41.2276 49.6236 40.5936 50.5141 39.5966 50.762C38.5996 51.0092 37.6172 50.5193 37.6172 50.5193Z" fill="white"/>
</g>
</mask>
<g mask="url(#mask0_1_1197)">
<path id="Vector_45" d="M38.7735 49.5167C39.0089 48.8183 39.7705 48.4419 40.4746 48.6754C41.1787 48.9088 41.5582 49.6642 41.3228 50.3626C41.0874 51.061 40.3258 51.4374 39.6217 51.2039C38.9176 50.9705 38.5382 50.2151 38.7735 49.5167Z" fill="#363E44"/>
</g>
</g>
</g>
<path id="Vector_46" d="M40.741 52.1856C40.7179 52.1856 40.6947 52.1843 40.6716 52.1816C40.4402 52.1554 40.2392 51.9974 40.1599 51.7784C40.1473 51.7443 40.1652 51.7069 40.1995 51.6944C40.2339 51.682 40.2716 51.6997 40.2842 51.7338C40.3463 51.9062 40.5043 52.0308 40.6861 52.0511C40.8745 52.0728 41.0603 51.981 41.1582 51.8177C41.1767 51.7869 41.2177 51.7764 41.2487 51.7947C41.2798 51.8131 41.2904 51.8538 41.2719 51.8846C41.1595 52.0721 40.9559 52.1856 40.7403 52.1856H40.741Z" fill="#363E44"/>
</g>
<path id="Vector_47" d="M30.971 52.1697C30.971 52.1697 36.4966 52.4117 39.9906 46.931C43.4847 41.4504 33.8965 41.773 29.9145 43.6268C27.3639 44.8143 30.971 52.1704 30.971 52.1704V52.1697Z" fill="#363E44"/>
<path id="Vector_48" d="M32.3448 56.5522C32.1742 56.5522 32.0625 56.5352 32.0493 56.5332C32.0129 56.5273 31.9891 56.4938 31.9944 56.4578C32.0003 56.4224 32.0341 56.3975 32.0704 56.4034C32.0797 56.4047 32.9735 56.5404 33.6644 55.9916C34.1543 55.602 34.4286 54.966 34.4802 54.1011C34.5569 52.8073 33.6102 52.0696 32.9834 51.5817C32.6079 51.2893 32.3368 51.0788 32.3844 50.8479C32.4307 50.6243 32.7738 50.4466 33.5698 50.2355C36.6097 49.4289 38.3696 45.8906 38.3867 45.8552C38.4026 45.8224 38.4423 45.8093 38.4753 45.825C38.5084 45.8407 38.5216 45.8801 38.5057 45.9129C38.4879 45.9489 36.7009 49.5411 33.6042 50.3627C32.9034 50.5489 32.5464 50.7161 32.514 50.8748C32.483 51.0263 32.7527 51.2361 33.0647 51.4794C33.7133 51.9843 34.6931 52.747 34.6118 54.1096C34.5582 55.0138 34.2667 55.682 33.7457 56.0958C33.2551 56.4853 32.6833 56.5535 32.3441 56.5535L32.3448 56.5522Z" fill="#40484C"/>
<path id="Vector_49" d="M23.583 29.7783C23.583 29.7783 18.1076 41.7652 30.8606 47.2905C30.8606 47.2905 25.1644 37.4229 34.7156 29.3652L23.583 29.7783Z" fill="#363E44"/>
</g>
<g id="Group_24">
<path id="Vector_50" d="M32.6311 107.838L36.8754 117.062H53.1654L42.649 87.8787L21.203 87.9042C15.8234 96.1278 14.0285 106.048 14.5455 117.062H32.3388L32.6311 107.838Z" fill="#253D4E"/>
<path id="Vector_51" d="M32.6311 107.904H32.6304C32.594 107.904 32.5649 107.874 32.5649 107.838L32.6185 104.192C32.6185 104.167 32.6337 104.144 32.6562 104.133L35.1069 102.971C35.14 102.955 35.179 102.969 35.1949 103.001C35.2107 103.034 35.1969 103.074 35.1638 103.089L32.7501 104.234L32.6972 107.839C32.6972 107.875 32.6674 107.904 32.6311 107.904Z" fill="#363E44"/>
<path id="Vector_52" d="M42.649 84.8315H21.1031V88.4571H42.649V84.8315Z" fill="#253D4E"/>
<path id="Vector_53" d="M35.8613 87.9444H22.4141C22.3778 87.9444 22.348 87.9149 22.348 87.8788C22.348 87.8427 22.3778 87.8132 22.4141 87.8132H35.8613C35.8977 87.8132 35.9274 87.8427 35.9274 87.8788C35.9274 87.9149 35.8977 87.9444 35.8613 87.9444Z" fill="#363E44"/>
</g>
</g>
<g id="Group_25">
<path id="Vector_54" d="M69.025 16.9541C71.5465 16.9541 73.59 18.9816 73.59 21.482C73.59 23.9823 69.025 29.5016 69.025 29.5016C69.025 29.5016 64.46 23.983 64.46 21.482C64.46 18.981 66.5041 16.9541 69.025 16.9541Z" fill="#D87355"/>
<path id="Vector_55" d="M69.219 24.5788C70.9408 24.472 72.2493 23.0009 72.1416 21.293C72.0339 19.5852 70.5507 18.2873 68.8288 18.3942C67.107 18.501 65.7985 19.9721 65.9062 21.68C66.0139 23.3878 67.4971 24.6857 69.219 24.5788Z" fill="#FCAF17" fill-opacity="0.14"/>
</g>
<path id="Vector_56" d="M99.9436 11.6472C94.4054 11.6472 89.915 16.1003 89.915 21.5941C89.915 27.0879 99.9436 39.2105 99.9436 39.2105C99.9436 39.2105 109.972 27.0879 109.972 21.5941C109.972 16.1003 105.482 11.6472 99.9436 11.6472ZM99.9436 28.4C96.154 28.4 93.0818 25.3528 93.0818 21.5941C93.0818 17.8354 96.154 14.7882 99.9436 14.7882C103.733 14.7882 106.805 17.8354 106.805 21.5941C106.805 25.3528 103.733 28.4 99.9436 28.4Z" fill="#FCAF17"/>
<path id="Vector_57" d="M100.01 46.6931H99.5257C99.4894 46.6931 99.4596 46.6636 99.4596 46.6276C99.4596 46.5915 99.4894 46.562 99.5257 46.562H99.8775V46.2551C99.8775 46.219 99.9072 46.1895 99.9436 46.1895C99.9799 46.1895 100.01 46.219 100.01 46.2551V46.6931ZM98.7324 46.6931H97.9391C97.9027 46.6931 97.8729 46.6636 97.8729 46.6276C97.8729 46.5915 97.9027 46.562 97.9391 46.562H98.7324C98.7688 46.562 98.7985 46.5915 98.7985 46.6276C98.7985 46.6636 98.7688 46.6931 98.7324 46.6931ZM97.1457 46.6931H96.3524C96.316 46.6931 96.2863 46.6636 96.2863 46.6276C96.2863 46.5915 96.316 46.562 96.3524 46.562H97.1457C97.1821 46.562 97.2118 46.5915 97.2118 46.6276C97.2118 46.6636 97.1821 46.6931 97.1457 46.6931ZM95.559 46.6931H94.7657C94.7293 46.6931 94.6996 46.6636 94.6996 46.6276C94.6996 46.5915 94.7293 46.562 94.7657 46.562H95.559C95.5954 46.562 95.6251 46.5915 95.6251 46.6276C95.6251 46.6636 95.5954 46.6931 95.559 46.6931ZM93.9723 46.6931H93.179C93.1426 46.6931 93.1129 46.6636 93.1129 46.6276C93.1129 46.5915 93.1426 46.562 93.179 46.562H93.9723C94.0087 46.562 94.0385 46.5915 94.0385 46.6276C94.0385 46.6636 94.0087 46.6931 93.9723 46.6931ZM92.3857 46.6931H91.5923C91.5559 46.6931 91.5262 46.6636 91.5262 46.6276C91.5262 46.5915 91.5559 46.562 91.5923 46.562H92.3857C92.422 46.562 92.4518 46.5915 92.4518 46.6276C92.4518 46.6636 92.422 46.6931 92.3857 46.6931ZM90.799 46.6931H90.0056C89.9693 46.6931 89.9395 46.6636 89.9395 46.6276C89.9395 46.5915 89.9693 46.562 90.0056 46.562H90.799C90.8353 46.562 90.8651 46.5915 90.8651 46.6276C90.8651 46.6636 90.8353 46.6931 90.799 46.6931ZM89.2123 46.6931H88.4189C88.3826 46.6931 88.3528 46.6636 88.3528 46.6276C88.3528 46.5915 88.3826 46.562 88.4189 46.562H89.2123C89.2486 46.562 89.2784 46.5915 89.2784 46.6276C89.2784 46.6636 89.2486 46.6931 89.2123 46.6931ZM87.6256 46.6931H86.8323C86.7959 46.6931 86.7661 46.6636 86.7661 46.6276C86.7661 46.5915 86.7959 46.562 86.8323 46.562H87.6256C87.662 46.562 87.6917 46.5915 87.6917 46.6276C87.6917 46.6636 87.662 46.6931 87.6256 46.6931ZM86.0389 46.6931H85.2456C85.2092 46.6931 85.1795 46.6636 85.1795 46.6276C85.1795 46.5915 85.2092 46.562 85.2456 46.562H86.0389C86.0753 46.562 86.105 46.5915 86.105 46.6276C86.105 46.6636 86.0753 46.6931 86.0389 46.6931ZM84.4522 46.6931H83.6589C83.6225 46.6931 83.5928 46.6636 83.5928 46.6276C83.5928 46.5915 83.6225 46.562 83.6589 46.562H84.4522C84.4886 46.562 84.5183 46.5915 84.5183 46.6276C84.5183 46.6636 84.4886 46.6931 84.4522 46.6931ZM82.8655 46.6931H82.0722C82.0358 46.6931 82.0061 46.6636 82.0061 46.6276C82.0061 46.5915 82.0358 46.562 82.0722 46.562H82.8655C82.9019 46.562 82.9316 46.5915 82.9316 46.6276C82.9316 46.6636 82.9019 46.6931 82.8655 46.6931ZM81.2788 46.6931H80.4855C80.4491 46.6931 80.4194 46.6636 80.4194 46.6276C80.4194 46.5915 80.4491 46.562 80.4855 46.562H81.2788C81.3152 46.562 81.345 46.5915 81.345 46.6276C81.345 46.6636 81.3152 46.6931 81.2788 46.6931ZM79.6922 46.6931H78.8988C78.8625 46.6931 78.8327 46.6636 78.8327 46.6276C78.8327 46.5915 78.8625 46.562 78.8988 46.562H79.6922C79.7285 46.562 79.7583 46.5915 79.7583 46.6276C79.7583 46.6636 79.7285 46.6931 79.6922 46.6931ZM78.1055 46.6931H77.3121C77.2758 46.6931 77.246 46.6636 77.246 46.6276C77.246 46.5915 77.2758 46.562 77.3121 46.562H78.1055C78.1418 46.562 78.1716 46.5915 78.1716 46.6276C78.1716 46.6636 78.1418 46.6931 78.1055 46.6931ZM76.5188 46.6931H75.7254C75.6891 46.6931 75.6593 46.6636 75.6593 46.6276C75.6593 46.5915 75.6891 46.562 75.7254 46.562H76.5188C76.5552 46.562 76.5849 46.5915 76.5849 46.6276C76.5849 46.6636 76.5552 46.6931 76.5188 46.6931ZM74.9321 46.6931H74.1388C74.1024 46.6931 74.0727 46.6636 74.0727 46.6276C74.0727 46.5915 74.1024 46.562 74.1388 46.562H74.9321C74.9685 46.562 74.9982 46.5915 74.9982 46.6276C74.9982 46.6636 74.9685 46.6931 74.9321 46.6931ZM73.3454 46.6931H72.5521C72.5157 46.6931 72.486 46.6636 72.486 46.6276C72.486 46.5915 72.5157 46.562 72.5521 46.562H73.3454C73.3818 46.562 73.4115 46.5915 73.4115 46.6276C73.4115 46.6636 73.3818 46.6931 73.3454 46.6931ZM71.7587 46.6931H70.9654C70.929 46.6931 70.8993 46.6636 70.8993 46.6276C70.8993 46.5915 70.929 46.562 70.9654 46.562H71.7587C71.7951 46.562 71.8248 46.5915 71.8248 46.6276C71.8248 46.6636 71.7951 46.6931 71.7587 46.6931ZM70.172 46.6931H69.3787C69.3423 46.6931 69.3126 46.6636 69.3126 46.6276C69.3126 46.5915 69.3423 46.562 69.3787 46.562H70.172C70.2084 46.562 70.2382 46.5915 70.2382 46.6276C70.2382 46.6636 70.2084 46.6931 70.172 46.6931ZM69.1057 46.1771C69.0693 46.1771 69.0396 46.1476 69.0396 46.1115V45.3246C69.0396 45.2885 69.0693 45.259 69.1057 45.259C69.142 45.259 69.1718 45.2885 69.1718 45.3246V46.1115C69.1718 46.1476 69.142 46.1771 69.1057 46.1771ZM99.9436 45.5338C99.9072 45.5338 99.8775 45.5043 99.8775 45.4682V44.6813C99.8775 44.6453 99.9072 44.6158 99.9436 44.6158C99.9799 44.6158 100.01 44.6453 100.01 44.6813V45.4682C100.01 45.5043 99.9799 45.5338 99.9436 45.5338ZM69.1057 44.6033C69.0693 44.6033 69.0396 44.5738 69.0396 44.5377V43.7508C69.0396 43.7148 69.0693 43.6853 69.1057 43.6853C69.142 43.6853 69.1718 43.7148 69.1718 43.7508V44.5377C69.1718 44.5738 69.142 44.6033 69.1057 44.6033ZM99.9436 43.96C99.9072 43.96 99.8775 43.9305 99.8775 43.8944V43.1076C99.8775 43.0715 99.9072 43.042 99.9436 43.042C99.9799 43.042 100.01 43.0715 100.01 43.1076V43.8944C100.01 43.9305 99.9799 43.96 99.9436 43.96ZM69.1057 43.0295C69.0693 43.0295 69.0396 43 69.0396 42.9639V42.1771C69.0396 42.141 69.0693 42.1115 69.1057 42.1115C69.142 42.1115 69.1718 42.141 69.1718 42.1771V42.9639C69.1718 43 69.142 43.0295 69.1057 43.0295ZM99.9436 42.3862C99.9072 42.3862 99.8775 42.3567 99.8775 42.3207V41.5338C99.8775 41.4977 99.9072 41.4682 99.9436 41.4682C99.9799 41.4682 100.01 41.4977 100.01 41.5338V42.3207C100.01 42.3567 99.9799 42.3862 99.9436 42.3862ZM69.1057 41.4557C69.0693 41.4557 69.0396 41.4262 69.0396 41.3902V40.6033C69.0396 40.5672 69.0693 40.5377 69.1057 40.5377C69.142 40.5377 69.1718 40.5672 69.1718 40.6033V41.3902C69.1718 41.4262 69.142 41.4557 69.1057 41.4557ZM99.9436 40.8125C99.9072 40.8125 99.8775 40.783 99.8775 40.7469V40.6931C99.8775 40.6571 99.9072 40.6276 99.9436 40.6276C99.9799 40.6276 100.01 40.6571 100.01 40.6931V40.7469C100.01 40.783 99.9799 40.8125 99.9436 40.8125ZM69.1057 39.882C69.0693 39.882 69.0396 39.8525 69.0396 39.8164V39.0295C69.0396 38.9935 69.0693 38.9639 69.1057 38.9639C69.142 38.9639 69.1718 38.9935 69.1718 39.0295V39.8164C69.1718 39.8525 69.142 39.882 69.1057 39.882ZM69.1057 38.3082C69.0693 38.3082 69.0396 38.2787 69.0396 38.2426V37.4558C69.0396 37.4197 69.0693 37.3902 69.1057 37.3902C69.142 37.3902 69.1718 37.4197 69.1718 37.4558V38.2426C69.1718 38.2787 69.142 38.3082 69.1057 38.3082ZM69.1057 36.7344C69.0693 36.7344 69.0396 36.7049 69.0396 36.6689V35.882C69.0396 35.8459 69.0693 35.8164 69.1057 35.8164C69.142 35.8164 69.1718 35.8459 69.1718 35.882V36.6689C69.1718 36.7049 69.142 36.7344 69.1057 36.7344Z" fill="#363E44"/>
<g id="Group_26">
<path id="Vector_58" d="M67.1818 33.0465C67.1818 34.0563 68.0069 34.8747 69.025 34.8747C70.0431 34.8747 70.8682 34.0563 70.8682 33.0465C70.8682 32.0366 70.0431 31.2183 69.025 31.2183C68.0069 31.2183 67.1818 32.0366 67.1818 33.0465Z" fill="#D87355"/>
<g id="Group_27">
<path id="Vector_59" d="M66.1875 31.2845H43.88C43.8436 31.2845 43.8139 31.255 43.8139 31.2189C43.8139 31.1828 43.8436 31.1533 43.88 31.1533H66.1875C66.2238 31.1533 66.2536 31.1828 66.2536 31.2189C66.2536 31.255 66.2238 31.2845 66.1875 31.2845Z" fill="#363E44"/>
<path id="Vector_60" d="M58.9555 33.1121H43.88C43.8436 33.1121 43.8139 33.0826 43.8139 33.0465C43.8139 33.0105 43.8436 32.981 43.88 32.981H58.9555C58.9918 32.981 59.0216 33.0105 59.0216 33.0465C59.0216 33.0826 58.9918 33.1121 58.9555 33.1121Z" fill="#363E44"/>
<path id="Vector_61" d="M66.1875 33.1121H61.1266C61.0902 33.1121 61.0605 33.0826 61.0605 33.0465C61.0605 33.0105 61.0902 32.981 61.1266 32.981H66.1875C66.2238 32.981 66.2536 33.0105 66.2536 33.0465C66.2536 33.0826 66.2238 33.1121 66.1875 33.1121Z" fill="#363E44"/>
<path id="Vector_62" d="M49.998 34.9402H43.88C43.8436 34.9402 43.8139 34.9107 43.8139 34.8747C43.8139 34.8386 43.8436 34.8091 43.88 34.8091H49.998C50.0343 34.8091 50.0641 34.8386 50.0641 34.8747C50.0641 34.9107 50.0343 34.9402 49.998 34.9402Z" fill="#363E44"/>
<path id="Vector_63" d="M66.1875 34.9402H54.0658C54.0295 34.9402 53.9997 34.9107 53.9997 34.8747C53.9997 34.8386 54.0295 34.8091 54.0658 34.8091H66.1875C66.2238 34.8091 66.2536 34.8386 66.2536 34.8747C66.2536 34.9107 66.2238 34.9402 66.1875 34.9402Z" fill="#363E44"/>
</g>
</g>
<g id="Group_28">
<path id="Vector_64" d="M60.127 16.7659H43.88V28.6977H60.127V16.7659Z" fill="#253D4E" fill-opacity="0.1"/>
<path id="Vector_65" d="M56.6938 20.6302C56.6766 20.6302 56.6594 20.6236 56.6469 20.6112L55.8601 19.8309L55.2076 20.4781C55.1818 20.5036 55.1402 20.5036 55.1144 20.4781L54.44 19.8092L53.6619 20.581C53.6427 20.6 53.6143 20.6053 53.5899 20.5954C53.5654 20.5856 53.5489 20.5613 53.5489 20.5351V16.9246C53.5489 16.8886 53.5786 16.8591 53.615 16.8591C53.6513 16.8591 53.6811 16.8886 53.6811 16.9246V20.3764L54.3931 19.6702C54.4182 19.6459 54.4619 19.6459 54.4863 19.6702L55.1607 20.3391L55.8132 19.6918C55.8258 19.6794 55.8423 19.6728 55.8601 19.6728C55.878 19.6728 55.8945 19.68 55.9071 19.6918L56.6277 20.4066V16.924C56.6277 16.8879 56.6574 16.8584 56.6938 16.8584C56.7302 16.8584 56.7599 16.8879 56.7599 16.924V20.5646C56.7599 20.5909 56.744 20.6151 56.7189 20.625C56.711 20.6282 56.7024 20.6302 56.6938 20.6302Z" fill="#AF9982"/>
</g>
</g>
</g>
<defs>
<clipPath id="clip0_1_1197">
<rect width="121" height="120" fill="white" transform="translate(0.5)"/>
</clipPath>
</defs>
</svg>
