<svg width="61" height="51" viewBox="0 0 61 51" fill="none" xmlns="http://www.w3.org/2000/svg">
<g id="Group">
<path id="Vector" d="M24.9086 28.2913V50.0973H0.503906V32.8785C0.503906 23.5686 1.85972 16.8121 4.54875 12.6317C8.09647 7.07283 13.7005 2.86981 21.3609 0L26.9197 7.2988C22.2873 8.90318 18.8752 11.2759 16.6833 14.4394C14.4914 17.603 13.2712 22.2128 13.0226 28.2687H24.9086V28.2913Z" fill="#156DAC"/>
<path id="Vector_2" d="M58.2843 28.2913V50.0973H33.8796V32.8785C33.8796 23.5686 35.2355 16.8121 37.9245 12.6317C41.4722 7.07283 47.0762 2.86981 54.7366 0L60.2954 7.2988C55.6631 8.90318 52.2509 11.2759 50.059 14.4394C47.8671 17.603 46.6469 22.2128 46.3983 28.2687H58.2843V28.2913Z" fill="#156DAC"/>
</g>
</svg>
