<svg width="20" height="21" viewBox="0 0 20 21" fill="none" xmlns="http://www.w3.org/2000/svg">
<g id="Frame">
<path id="Vector" d="M14.795 4.64858C13.3367 3.19775 11.555 2.46191 9.5 2.46191C7.42583 2.46191 5.63917 3.19858 4.18917 4.64941C2.73667 6.10025 2 7.88858 2 9.96191C2 12.0161 2.73583 13.7977 4.18667 15.2569C5.6375 16.7202 7.425 17.4619 9.5 17.4619C11.5558 17.4619 13.3375 16.7202 14.7967 15.2594C16.2592 13.7986 17 12.0161 17 9.96191C17 7.88858 16.2583 6.10025 14.795 4.64858ZM13.6183 14.0811C12.6708 15.0302 11.5883 15.5711 10.3333 15.7352V11.6286H12V9.96191H10.3333V8.79525C10.3333 8.72952 10.3463 8.66443 10.3715 8.60371C10.3967 8.543 10.4336 8.48784 10.4801 8.4414C10.5266 8.39496 10.5818 8.35815 10.6426 8.33307C10.7033 8.30799 10.7684 8.29514 10.8342 8.29525H12V6.62858H10.8358C10.2175 6.62858 9.70167 6.85608 9.28833 7.31358C8.875 7.76941 8.66667 8.32608 8.66667 8.98691V9.96191H7V11.6286H8.66667V15.7369C7.39833 15.5744 6.31167 15.0327 5.36917 14.0836C4.22333 12.9302 3.66667 11.5819 3.66667 9.96191C3.66667 8.32358 4.2225 6.97191 5.36833 5.82858C6.51 4.68441 7.86167 4.12858 9.5 4.12858C11.1208 4.12858 12.4683 4.68525 13.6208 5.83108C14.7733 6.97441 15.3333 8.32608 15.3333 9.96191C15.3333 11.5794 14.7725 12.9277 13.6183 14.0811Z" fill="#253D4E"/>
</g>
</svg>
