<svg width="20" height="21" viewBox="0 0 20 21" fill="none" xmlns="http://www.w3.org/2000/svg">
<g id="Frame">
<path id="Vector" d="M14.45 5.01224C14.1848 5.01224 13.9305 5.1176 13.7429 5.30513C13.5554 5.49267 13.45 5.74702 13.45 6.01224C13.45 6.27746 13.5554 6.53181 13.7429 6.71935C13.9305 6.90688 14.1848 7.01224 14.45 7.01224C14.7152 7.01224 14.9696 6.90688 15.1571 6.71935C15.3447 6.53181 15.45 6.27746 15.45 6.01224C15.45 5.74702 15.3447 5.49267 15.1571 5.30513C14.9696 5.1176 14.7152 5.01224 14.45 5.01224ZM18.2834 7.02891C18.2672 6.33748 18.1377 5.6534 17.9 5.00391C17.6881 4.44818 17.3583 3.94497 16.9334 3.52891C16.5207 3.10176 16.0163 2.77405 15.4584 2.57057C14.8106 2.32571 14.1257 2.19325 13.4334 2.17891C12.55 2.12891 12.2667 2.12891 10 2.12891C7.73335 2.12891 7.45002 2.12891 6.56669 2.17891C5.87431 2.19325 5.18947 2.32571 4.54169 2.57057C3.98475 2.77611 3.4808 3.10354 3.06669 3.52891C2.63954 3.94155 2.31183 4.44594 2.10835 5.00391C1.86349 5.65169 1.73103 6.33653 1.71669 7.02891C1.66669 7.91224 1.66669 8.19557 1.66669 10.4622C1.66669 12.7289 1.66669 13.0122 1.71669 13.8956C1.73103 14.5879 1.86349 15.2728 2.10835 15.9206C2.31183 16.4785 2.63954 16.9829 3.06669 17.3956C3.4808 17.8209 3.98475 18.1484 4.54169 18.3539C5.18947 18.5988 5.87431 18.7312 6.56669 18.7456C7.45002 18.7956 7.73335 18.7956 10 18.7956C12.2667 18.7956 12.55 18.7956 13.4334 18.7456C14.1257 18.7312 14.8106 18.5988 15.4584 18.3539C16.0163 18.1504 16.5207 17.8227 16.9334 17.3956C17.3602 16.9811 17.6903 16.4774 17.9 15.9206C18.1375 15.2706 18.2667 14.5872 18.2834 13.8956C18.2834 13.0122 18.3334 12.7289 18.3334 10.4622C18.3334 8.19557 18.3334 7.91224 18.2834 7.02891ZM16.7834 13.7956C16.7773 14.3245 16.6815 14.8487 16.5 15.3456C16.367 15.7082 16.1533 16.0359 15.875 16.3039C15.605 16.5789 15.2775 16.7922 14.9167 16.9289C14.4198 17.1104 13.8957 17.2062 13.3667 17.2122C12.5334 17.2539 12.225 17.2622 10.0334 17.2622C7.84169 17.2622 7.53335 17.2622 6.70002 17.2122C6.15076 17.2225 5.60385 17.1379 5.08335 16.9622C4.73817 16.819 4.42615 16.6062 4.16669 16.3372C3.89009 16.0695 3.67906 15.7416 3.55002 15.3789C3.34657 14.8749 3.23372 14.3389 3.21669 13.7956C3.21669 12.9622 3.16669 12.6539 3.16669 10.4622C3.16669 8.27057 3.16669 7.96224 3.21669 7.12891C3.22042 6.58812 3.31915 6.05219 3.50835 5.54557C3.65506 5.19383 3.88024 4.88029 4.16669 4.62891C4.41986 4.34238 4.73276 4.11482 5.08335 3.96224C5.59131 3.77894 6.12668 3.68314 6.66669 3.67891C7.50002 3.67891 7.80835 3.62891 10 3.62891C12.1917 3.62891 12.5 3.62891 13.3334 3.67891C13.8623 3.68497 14.3864 3.78078 14.8834 3.96224C15.262 4.10278 15.6019 4.33128 15.875 4.62891C16.1484 4.88474 16.3617 5.19807 16.5 5.54557C16.685 6.05307 16.7809 6.58891 16.7834 7.12891C16.825 7.96224 16.8334 8.27057 16.8334 10.4622C16.8334 12.6539 16.825 12.9622 16.7834 13.7956ZM10 6.18724C9.15486 6.18889 8.32916 6.44101 7.62723 6.91175C6.92531 7.3825 6.37867 8.05074 6.05638 8.83203C5.73409 9.61333 5.65062 10.4726 5.81652 11.3013C5.98241 12.1301 6.39022 12.891 6.98842 13.4881C7.58662 14.0851 8.34836 14.4914 9.1774 14.6557C10.0064 14.82 10.8656 14.7348 11.6462 14.411C12.4269 14.0872 13.0941 13.5393 13.5635 12.8364C14.0328 12.1336 14.2834 11.3074 14.2834 10.4622C14.2845 9.89983 14.1744 9.34274 13.9594 8.82304C13.7444 8.30333 13.4288 7.83125 13.0307 7.43395C12.6327 7.03665 12.16 6.72197 11.6399 6.50801C11.1197 6.29406 10.5624 6.18504 10 6.18724ZM10 13.2372C9.26404 13.2372 8.55821 12.9449 8.0378 12.4245C7.51739 11.904 7.22502 11.1982 7.22502 10.4622C7.22502 9.72626 7.51739 9.02043 8.0378 8.50002C8.55821 7.9796 9.26404 7.68724 10 7.68724C10.736 7.68724 11.4418 7.9796 11.9622 8.50002C12.4827 9.02043 12.775 9.72626 12.775 10.4622C12.775 11.1982 12.4827 11.904 11.9622 12.4245C11.4418 12.9449 10.736 13.2372 10 13.2372Z" fill="#253D4E"/>
</g>
</svg>
