<svg width="20" height="21" viewBox="0 0 20 21" fill="none" xmlns="http://www.w3.org/2000/svg">
<g id="Frame">
<path id="Vector" d="M14.1666 14.4848V11.404C14.1666 9.75398 13.285 8.98565 12.11 8.98565C11.1608 8.98565 10.7375 9.50732 10.5 9.87398V9.89065H10.4883L10.5 9.87398V9.11232H8.71331C8.73748 9.61648 8.71331 14.4848 8.71331 14.4848H10.5V11.484C10.5 11.324 10.5125 11.164 10.5591 11.049C10.6883 10.7273 10.9825 10.3957 11.4758 10.3957C12.1225 10.3957 12.3808 10.8882 12.3808 11.6098V14.4848H14.1666ZM5.83331 7.44982C5.83331 6.92315 6.23331 6.52148 6.84415 6.52148C7.45581 6.52148 7.83165 6.92315 7.84331 7.44982C7.84331 7.96565 7.45581 8.37898 6.83248 8.37898H6.82081C6.22165 8.37898 5.83331 7.96648 5.83331 7.44982ZM7.72581 9.11232V14.4848H5.93915V9.11232H7.72581Z" fill="#253D4E"/>
<path id="Vector_2" fill-rule="evenodd" clip-rule="evenodd" d="M1.66669 10.4622C1.66669 15.0647 5.39752 18.7956 10 18.7956C14.6025 18.7956 18.3334 15.0647 18.3334 10.4622C18.3334 5.85974 14.6025 2.12891 10 2.12891C5.39752 2.12891 1.66669 5.85974 1.66669 10.4622ZM14.7142 15.1764C14.0951 15.7955 13.3601 16.2865 12.5511 16.6216C11.7422 16.9566 10.8753 17.129 9.99973 17.129C9.12419 17.1289 8.25723 16.9564 7.44835 16.6213C6.63947 16.2862 5.90451 15.7951 5.28544 15.176C4.66636 14.5569 4.1753 13.8219 3.84028 13.013C3.50526 12.204 3.33285 11.3371 3.33289 10.4615C3.33293 9.58599 3.50541 8.71903 3.84051 7.91015C4.1756 7.10127 4.66673 6.36631 5.28585 5.74724C6.53624 4.49696 8.23208 3.79461 10.0003 3.79469C11.7685 3.79477 13.4643 4.49727 14.7146 5.74766C15.9649 6.99804 16.6672 8.69388 16.6672 10.4621C16.6671 12.2304 15.9646 13.9261 14.7142 15.1764Z" fill="#253D4E"/>
</g>
</svg>
