<svg width="20" height="21" viewBox="0 0 20 21" fill="none" xmlns="http://www.w3.org/2000/svg">
<g id="Frame">
<path id="Vector" d="M19.1591 3.75312C19.1591 3.60603 19.1202 3.46157 19.0462 3.33441C18.9723 3.20725 18.866 3.10193 18.7382 3.02914C18.6104 2.95634 18.4656 2.91867 18.3185 2.91996C18.1714 2.92124 18.0273 2.96143 17.9008 3.03645C17.4128 3.32713 16.8874 3.54974 16.3391 3.69812C15.5566 3.02668 14.5586 2.65929 13.5275 2.66312C12.3964 2.66447 11.3102 3.10531 10.498 3.89255C9.68591 4.67979 9.2115 5.75182 9.17497 6.88228C6.9448 6.52672 4.92353 5.36272 3.49664 3.61228C3.41066 3.50809 3.30091 3.42608 3.17663 3.37315C3.05235 3.32021 2.91717 3.29791 2.78247 3.30812C2.64782 3.31933 2.51792 3.36312 2.40396 3.43571C2.29 3.50829 2.1954 3.6075 2.1283 3.72478C1.78457 4.3247 1.58717 4.99722 1.55213 5.68774C1.51709 6.37827 1.6454 7.06732 1.92664 7.69895L1.92497 7.69978C1.79829 7.77762 1.69375 7.88672 1.62137 8.01659C1.54899 8.14647 1.5112 8.29277 1.51164 8.44145C1.50997 8.56395 1.51747 8.68645 1.53414 8.80728C1.61924 9.85566 2.08383 10.837 2.8408 11.5673C2.78944 11.6652 2.75812 11.7724 2.74867 11.8826C2.73923 11.9928 2.75185 12.1037 2.7858 12.2089C3.11579 13.2374 3.81769 14.1057 4.75414 14.6439C3.80261 15.0118 2.77522 15.14 1.76247 15.0173C1.57511 14.994 1.3854 15.035 1.22439 15.1336C1.06339 15.2322 0.940643 15.3826 0.876254 15.56C0.811865 15.7375 0.809652 15.9316 0.869978 16.1105C0.930303 16.2894 1.04959 16.4425 1.2083 16.5448C2.95015 17.6665 4.9782 18.2628 7.04997 18.2623C9.39934 18.2887 11.6916 17.538 13.5702 16.1269C15.4488 14.7159 16.8084 12.7235 17.4375 10.4598C17.7316 9.47395 17.8816 8.45062 17.8833 7.42145L17.8825 7.25478C18.3176 6.78545 18.6547 6.23397 18.8739 5.63268C19.0931 5.03139 19.1901 4.39238 19.1591 3.75312ZM16.4041 6.42978C16.2663 6.59246 16.1965 6.80196 16.2091 7.01478C16.2175 7.15228 16.2166 7.29062 16.2166 7.42145C16.2149 8.29077 16.0875 9.15527 15.8383 9.98812C15.3247 11.9145 14.1795 13.6127 12.586 14.8109C10.9926 16.0091 9.04319 16.6378 7.04997 16.5964C6.33414 16.5964 5.6208 16.5131 4.92497 16.3456C5.81272 16.0593 6.64276 15.618 7.37664 15.0423C7.51196 14.9359 7.61102 14.7902 7.66019 14.6252C7.70937 14.4603 7.70625 14.2841 7.65127 14.121C7.59628 13.9579 7.49213 13.8158 7.35313 13.7142C7.21413 13.6127 7.04709 13.5567 6.87497 13.5539C6.18224 13.5431 5.52077 13.2638 5.02997 12.7748C5.15486 12.7513 5.27861 12.7221 5.4008 12.6873C5.58083 12.6361 5.73838 12.5258 5.84809 12.3742C5.95779 12.2226 6.01326 12.0384 6.00556 11.8514C5.99786 11.6644 5.92744 11.4855 5.80564 11.3434C5.68384 11.2013 5.51776 11.1043 5.33414 11.0681C4.93202 10.9888 4.55364 10.8177 4.22844 10.5682C3.90323 10.3187 3.63997 9.9976 3.45914 9.62978C3.60914 9.65062 3.76164 9.66312 3.9133 9.66812C4.09387 9.67109 4.27069 9.61647 4.41813 9.51218C4.56557 9.4079 4.67596 9.25936 4.7333 9.08812C4.78835 8.91542 4.78558 8.72949 4.72543 8.5585C4.66528 8.38752 4.55102 8.24081 4.39997 8.14062C4.00982 7.88109 3.69505 7.52324 3.48743 7.10316C3.27981 6.68309 3.18669 6.21568 3.21747 5.74812C5.08536 7.49031 7.50823 8.5173 10.0591 8.64812C10.1879 8.65301 10.3162 8.62854 10.4341 8.57656C10.5521 8.52459 10.6567 8.44647 10.74 8.34812C10.8225 8.24916 10.8809 8.13241 10.9107 8.00705C10.9405 7.88168 10.9408 7.75112 10.9116 7.62562C10.8639 7.42663 10.8396 7.22275 10.8391 7.01812C10.8399 6.57289 10.9511 6.13482 11.1628 5.74313C11.3745 5.35145 11.68 5.01839 12.052 4.77379C12.4241 4.52919 12.8509 4.38069 13.2945 4.3416C13.738 4.3025 14.1842 4.37404 14.5933 4.54978C14.93 4.69645 15.2325 4.91062 15.4816 5.17978C15.5778 5.28322 15.6987 5.36034 15.8331 5.4038C15.9674 5.44727 16.1106 5.45564 16.2491 5.42812C16.5915 5.36157 16.9289 5.27192 17.2591 5.15978C17.034 5.62046 16.7462 6.04783 16.4041 6.42978Z" fill="#253D4E"/>
</g>
</svg>
